<mxfile host="Electron" modified="2023-08-22T16:33:16.450Z" agent="Mozilla/5.0 (Windows NT 10.0; Win64; x64) AppleWebKit/537.36 (KHTML, like Gecko) draw.io/21.6.8 Chrome/114.0.5735.289 Electron/25.5.0 Safari/537.36" etag="oPwaz2Wr_CiJxngVpQMT" version="21.6.8" type="device">
  <diagram name="Page-1" id="iTIsgDo80MpEEKx2CAWr">
    <mxGraphModel dx="1050" dy="621" grid="1" gridSize="10" guides="1" tooltips="1" connect="1" arrows="1" fold="1" page="1" pageScale="1" pageWidth="1700" pageHeight="1100" math="0" shadow="0">
      <root>
        <mxCell id="0" />
        <mxCell id="1" parent="0" />
        <mxCell id="pu2686mD0NrhmpSzrKGa-3" value="" style="rounded=0;whiteSpace=wrap;html=1;" parent="1" vertex="1">
          <mxGeometry x="90" y="210" width="1390" height="720" as="geometry" />
        </mxCell>
        <mxCell id="9pnh7lvO98Alzu9_AtAS-275" value="" style="rounded=0;whiteSpace=wrap;html=1;" parent="1" vertex="1">
          <mxGeometry x="420" y="270" width="820" height="610" as="geometry" />
        </mxCell>
        <mxCell id="9pnh7lvO98Alzu9_AtAS-264" value="" style="rounded=1;whiteSpace=wrap;html=1;fillColor=#660017;fontColor=#ffffff;strokeColor=#6F0000;" parent="1" vertex="1">
          <mxGeometry x="440" y="545" width="110" height="235" as="geometry" />
        </mxCell>
        <mxCell id="9pnh7lvO98Alzu9_AtAS-185" value="" style="group;aspect=fixed;" parent="1" vertex="1" connectable="0">
          <mxGeometry x="630" y="480" width="190" height="190" as="geometry" />
        </mxCell>
        <mxCell id="9pnh7lvO98Alzu9_AtAS-62" value="" style="shape=table;startSize=0;container=1;collapsible=0;childLayout=tableLayout;" parent="9pnh7lvO98Alzu9_AtAS-185" vertex="1">
          <mxGeometry width="189.99921198120364" height="189.99999999999997" as="geometry" />
        </mxCell>
        <mxCell id="9pnh7lvO98Alzu9_AtAS-63" value="" style="shape=tableRow;horizontal=0;startSize=0;swimlaneHead=0;swimlaneBody=0;strokeColor=inherit;top=0;left=0;bottom=0;right=0;collapsible=0;dropTarget=0;fillColor=none;points=[[0,0.5],[1,0.5]];portConstraint=eastwest;" parent="9pnh7lvO98Alzu9_AtAS-62" vertex="1">
          <mxGeometry width="189.99921198120364" height="38" as="geometry" />
        </mxCell>
        <mxCell id="9pnh7lvO98Alzu9_AtAS-64" value="" style="shape=partialRectangle;html=1;whiteSpace=wrap;connectable=0;strokeColor=inherit;overflow=hidden;fillColor=none;top=0;left=0;bottom=0;right=0;pointerEvents=1;" parent="9pnh7lvO98Alzu9_AtAS-63" vertex="1">
          <mxGeometry width="38" height="38" as="geometry">
            <mxRectangle width="38" height="38" as="alternateBounds" />
          </mxGeometry>
        </mxCell>
        <mxCell id="9pnh7lvO98Alzu9_AtAS-65" value="" style="shape=partialRectangle;html=1;whiteSpace=wrap;connectable=0;strokeColor=#C73500;overflow=hidden;fillColor=#999999;top=0;left=0;bottom=0;right=0;pointerEvents=1;fontColor=#000000;" parent="9pnh7lvO98Alzu9_AtAS-63" vertex="1">
          <mxGeometry x="38" width="38" height="38" as="geometry">
            <mxRectangle width="38" height="38" as="alternateBounds" />
          </mxGeometry>
        </mxCell>
        <mxCell id="9pnh7lvO98Alzu9_AtAS-66" value="" style="shape=partialRectangle;html=1;whiteSpace=wrap;connectable=0;strokeColor=inherit;overflow=hidden;fillColor=none;top=0;left=0;bottom=0;right=0;pointerEvents=1;" parent="9pnh7lvO98Alzu9_AtAS-63" vertex="1">
          <mxGeometry x="76" width="38" height="38" as="geometry">
            <mxRectangle width="38" height="38" as="alternateBounds" />
          </mxGeometry>
        </mxCell>
        <mxCell id="9pnh7lvO98Alzu9_AtAS-67" value="" style="shape=partialRectangle;html=1;whiteSpace=wrap;connectable=0;strokeColor=inherit;overflow=hidden;fillColor=none;top=0;left=0;bottom=0;right=0;pointerEvents=1;" parent="9pnh7lvO98Alzu9_AtAS-63" vertex="1">
          <mxGeometry x="114" width="38" height="38" as="geometry">
            <mxRectangle width="38" height="38" as="alternateBounds" />
          </mxGeometry>
        </mxCell>
        <mxCell id="9pnh7lvO98Alzu9_AtAS-68" value="" style="shape=partialRectangle;html=1;whiteSpace=wrap;connectable=0;strokeColor=inherit;overflow=hidden;fillColor=none;top=0;left=0;bottom=0;right=0;pointerEvents=1;" parent="9pnh7lvO98Alzu9_AtAS-63" vertex="1">
          <mxGeometry x="152" width="38" height="38" as="geometry">
            <mxRectangle width="38" height="38" as="alternateBounds" />
          </mxGeometry>
        </mxCell>
        <mxCell id="9pnh7lvO98Alzu9_AtAS-69" value="" style="shape=tableRow;horizontal=0;startSize=0;swimlaneHead=0;swimlaneBody=0;strokeColor=inherit;top=0;left=0;bottom=0;right=0;collapsible=0;dropTarget=0;fillColor=none;points=[[0,0.5],[1,0.5]];portConstraint=eastwest;" parent="9pnh7lvO98Alzu9_AtAS-62" vertex="1">
          <mxGeometry y="38" width="189.99921198120364" height="38" as="geometry" />
        </mxCell>
        <mxCell id="9pnh7lvO98Alzu9_AtAS-70" value="" style="shape=partialRectangle;html=1;whiteSpace=wrap;connectable=0;strokeColor=inherit;overflow=hidden;fillColor=none;top=0;left=0;bottom=0;right=0;pointerEvents=1;" parent="9pnh7lvO98Alzu9_AtAS-69" vertex="1">
          <mxGeometry width="38" height="38" as="geometry">
            <mxRectangle width="38" height="38" as="alternateBounds" />
          </mxGeometry>
        </mxCell>
        <mxCell id="9pnh7lvO98Alzu9_AtAS-71" value="" style="shape=partialRectangle;html=1;whiteSpace=wrap;connectable=0;strokeColor=inherit;overflow=hidden;fillColor=none;top=0;left=0;bottom=0;right=0;pointerEvents=1;" parent="9pnh7lvO98Alzu9_AtAS-69" vertex="1">
          <mxGeometry x="38" width="38" height="38" as="geometry">
            <mxRectangle width="38" height="38" as="alternateBounds" />
          </mxGeometry>
        </mxCell>
        <mxCell id="9pnh7lvO98Alzu9_AtAS-72" value="" style="shape=partialRectangle;html=1;whiteSpace=wrap;connectable=0;strokeColor=inherit;overflow=hidden;fillColor=none;top=0;left=0;bottom=0;right=0;pointerEvents=1;" parent="9pnh7lvO98Alzu9_AtAS-69" vertex="1">
          <mxGeometry x="76" width="38" height="38" as="geometry">
            <mxRectangle width="38" height="38" as="alternateBounds" />
          </mxGeometry>
        </mxCell>
        <mxCell id="9pnh7lvO98Alzu9_AtAS-73" value="" style="shape=partialRectangle;html=1;whiteSpace=wrap;connectable=0;strokeColor=inherit;overflow=hidden;fillColor=none;top=0;left=0;bottom=0;right=0;pointerEvents=1;" parent="9pnh7lvO98Alzu9_AtAS-69" vertex="1">
          <mxGeometry x="114" width="38" height="38" as="geometry">
            <mxRectangle width="38" height="38" as="alternateBounds" />
          </mxGeometry>
        </mxCell>
        <mxCell id="9pnh7lvO98Alzu9_AtAS-74" value="" style="shape=partialRectangle;html=1;whiteSpace=wrap;connectable=0;strokeColor=inherit;overflow=hidden;fillColor=none;top=0;left=0;bottom=0;right=0;pointerEvents=1;" parent="9pnh7lvO98Alzu9_AtAS-69" vertex="1">
          <mxGeometry x="152" width="38" height="38" as="geometry">
            <mxRectangle width="38" height="38" as="alternateBounds" />
          </mxGeometry>
        </mxCell>
        <mxCell id="9pnh7lvO98Alzu9_AtAS-75" value="" style="shape=tableRow;horizontal=0;startSize=0;swimlaneHead=0;swimlaneBody=0;strokeColor=inherit;top=0;left=0;bottom=0;right=0;collapsible=0;dropTarget=0;fillColor=none;points=[[0,0.5],[1,0.5]];portConstraint=eastwest;" parent="9pnh7lvO98Alzu9_AtAS-62" vertex="1">
          <mxGeometry y="76" width="189.99921198120364" height="38" as="geometry" />
        </mxCell>
        <mxCell id="9pnh7lvO98Alzu9_AtAS-76" value="" style="shape=partialRectangle;html=1;whiteSpace=wrap;connectable=0;strokeColor=inherit;overflow=hidden;fillColor=none;top=0;left=0;bottom=0;right=0;pointerEvents=1;" parent="9pnh7lvO98Alzu9_AtAS-75" vertex="1">
          <mxGeometry width="38" height="38" as="geometry">
            <mxRectangle width="38" height="38" as="alternateBounds" />
          </mxGeometry>
        </mxCell>
        <mxCell id="9pnh7lvO98Alzu9_AtAS-77" value="" style="shape=partialRectangle;html=1;whiteSpace=wrap;connectable=0;strokeColor=inherit;overflow=hidden;fillColor=none;top=0;left=0;bottom=0;right=0;pointerEvents=1;" parent="9pnh7lvO98Alzu9_AtAS-75" vertex="1">
          <mxGeometry x="38" width="38" height="38" as="geometry">
            <mxRectangle width="38" height="38" as="alternateBounds" />
          </mxGeometry>
        </mxCell>
        <mxCell id="9pnh7lvO98Alzu9_AtAS-78" value="" style="shape=partialRectangle;html=1;whiteSpace=wrap;connectable=0;strokeColor=inherit;overflow=hidden;fillColor=none;top=0;left=0;bottom=0;right=0;pointerEvents=1;" parent="9pnh7lvO98Alzu9_AtAS-75" vertex="1">
          <mxGeometry x="76" width="38" height="38" as="geometry">
            <mxRectangle width="38" height="38" as="alternateBounds" />
          </mxGeometry>
        </mxCell>
        <mxCell id="9pnh7lvO98Alzu9_AtAS-79" value="" style="shape=partialRectangle;html=1;whiteSpace=wrap;connectable=0;strokeColor=inherit;overflow=hidden;fillColor=none;top=0;left=0;bottom=0;right=0;pointerEvents=1;" parent="9pnh7lvO98Alzu9_AtAS-75" vertex="1">
          <mxGeometry x="114" width="38" height="38" as="geometry">
            <mxRectangle width="38" height="38" as="alternateBounds" />
          </mxGeometry>
        </mxCell>
        <mxCell id="9pnh7lvO98Alzu9_AtAS-80" value="" style="shape=partialRectangle;html=1;whiteSpace=wrap;connectable=0;strokeColor=inherit;overflow=hidden;fillColor=none;top=0;left=0;bottom=0;right=0;pointerEvents=1;" parent="9pnh7lvO98Alzu9_AtAS-75" vertex="1">
          <mxGeometry x="152" width="38" height="38" as="geometry">
            <mxRectangle width="38" height="38" as="alternateBounds" />
          </mxGeometry>
        </mxCell>
        <mxCell id="9pnh7lvO98Alzu9_AtAS-81" value="" style="shape=waypoint;sketch=0;size=6;pointerEvents=1;points=[];fillColor=none;resizable=0;rotatable=0;perimeter=centerPerimeter;snapToPoint=1;" parent="9pnh7lvO98Alzu9_AtAS-75" vertex="1">
          <mxGeometry x="190" height="38" as="geometry">
            <mxRectangle width="NaN" height="38" as="alternateBounds" />
          </mxGeometry>
        </mxCell>
        <mxCell id="9pnh7lvO98Alzu9_AtAS-82" value="" style="shape=tableRow;horizontal=0;startSize=0;swimlaneHead=0;swimlaneBody=0;strokeColor=inherit;top=0;left=0;bottom=0;right=0;collapsible=0;dropTarget=0;fillColor=none;points=[[0,0.5],[1,0.5]];portConstraint=eastwest;" parent="9pnh7lvO98Alzu9_AtAS-62" vertex="1">
          <mxGeometry y="114" width="189.99921198120364" height="38" as="geometry" />
        </mxCell>
        <mxCell id="9pnh7lvO98Alzu9_AtAS-83" value="" style="shape=partialRectangle;html=1;whiteSpace=wrap;connectable=0;strokeColor=inherit;overflow=hidden;fillColor=none;top=0;left=0;bottom=0;right=0;pointerEvents=1;" parent="9pnh7lvO98Alzu9_AtAS-82" vertex="1">
          <mxGeometry width="38" height="38" as="geometry">
            <mxRectangle width="38" height="38" as="alternateBounds" />
          </mxGeometry>
        </mxCell>
        <mxCell id="9pnh7lvO98Alzu9_AtAS-84" value="" style="shape=partialRectangle;html=1;whiteSpace=wrap;connectable=0;strokeColor=#d79b00;overflow=hidden;fillColor=#ffcd28;top=0;left=0;bottom=0;right=0;pointerEvents=1;fillStyle=auto;gradientColor=#ffa500;" parent="9pnh7lvO98Alzu9_AtAS-82" vertex="1">
          <mxGeometry x="38" width="38" height="38" as="geometry">
            <mxRectangle width="38" height="38" as="alternateBounds" />
          </mxGeometry>
        </mxCell>
        <mxCell id="9pnh7lvO98Alzu9_AtAS-85" value="" style="shape=partialRectangle;html=1;whiteSpace=wrap;connectable=0;strokeColor=inherit;overflow=hidden;fillColor=none;top=0;left=0;bottom=0;right=0;pointerEvents=1;" parent="9pnh7lvO98Alzu9_AtAS-82" vertex="1">
          <mxGeometry x="76" width="38" height="38" as="geometry">
            <mxRectangle width="38" height="38" as="alternateBounds" />
          </mxGeometry>
        </mxCell>
        <mxCell id="9pnh7lvO98Alzu9_AtAS-86" value="" style="shape=partialRectangle;html=1;whiteSpace=wrap;connectable=0;strokeColor=inherit;overflow=hidden;fillColor=none;top=0;left=0;bottom=0;right=0;pointerEvents=1;" parent="9pnh7lvO98Alzu9_AtAS-82" vertex="1">
          <mxGeometry x="114" width="38" height="38" as="geometry">
            <mxRectangle width="38" height="38" as="alternateBounds" />
          </mxGeometry>
        </mxCell>
        <mxCell id="9pnh7lvO98Alzu9_AtAS-87" value="" style="shape=partialRectangle;html=1;whiteSpace=wrap;connectable=0;strokeColor=inherit;overflow=hidden;fillColor=#999999;top=0;left=0;bottom=0;right=0;pointerEvents=1;" parent="9pnh7lvO98Alzu9_AtAS-82" vertex="1">
          <mxGeometry x="152" width="38" height="38" as="geometry">
            <mxRectangle width="38" height="38" as="alternateBounds" />
          </mxGeometry>
        </mxCell>
        <mxCell id="9pnh7lvO98Alzu9_AtAS-88" value="" style="shape=tableRow;horizontal=0;startSize=0;swimlaneHead=0;swimlaneBody=0;strokeColor=inherit;top=0;left=0;bottom=0;right=0;collapsible=0;dropTarget=0;fillColor=none;points=[[0,0.5],[1,0.5]];portConstraint=eastwest;" parent="9pnh7lvO98Alzu9_AtAS-62" vertex="1">
          <mxGeometry y="152" width="189.99921198120364" height="38" as="geometry" />
        </mxCell>
        <mxCell id="9pnh7lvO98Alzu9_AtAS-89" value="" style="shape=partialRectangle;html=1;whiteSpace=wrap;connectable=0;strokeColor=inherit;overflow=hidden;fillColor=none;top=0;left=0;bottom=0;right=0;pointerEvents=1;" parent="9pnh7lvO98Alzu9_AtAS-88" vertex="1">
          <mxGeometry width="38" height="38" as="geometry">
            <mxRectangle width="38" height="38" as="alternateBounds" />
          </mxGeometry>
        </mxCell>
        <mxCell id="9pnh7lvO98Alzu9_AtAS-90" value="" style="shape=partialRectangle;html=1;whiteSpace=wrap;connectable=0;strokeColor=inherit;overflow=hidden;fillColor=none;top=0;left=0;bottom=0;right=0;pointerEvents=1;" parent="9pnh7lvO98Alzu9_AtAS-88" vertex="1">
          <mxGeometry x="38" width="38" height="38" as="geometry">
            <mxRectangle width="38" height="38" as="alternateBounds" />
          </mxGeometry>
        </mxCell>
        <mxCell id="9pnh7lvO98Alzu9_AtAS-91" value="" style="shape=partialRectangle;html=1;whiteSpace=wrap;connectable=0;strokeColor=inherit;overflow=hidden;fillColor=none;top=0;left=0;bottom=0;right=0;pointerEvents=1;" parent="9pnh7lvO98Alzu9_AtAS-88" vertex="1">
          <mxGeometry x="76" width="38" height="38" as="geometry">
            <mxRectangle width="38" height="38" as="alternateBounds" />
          </mxGeometry>
        </mxCell>
        <mxCell id="9pnh7lvO98Alzu9_AtAS-92" value="" style="shape=partialRectangle;html=1;whiteSpace=wrap;connectable=0;strokeColor=inherit;overflow=hidden;fillColor=none;top=0;left=0;bottom=0;right=0;pointerEvents=1;" parent="9pnh7lvO98Alzu9_AtAS-88" vertex="1">
          <mxGeometry x="114" width="38" height="38" as="geometry">
            <mxRectangle width="38" height="38" as="alternateBounds" />
          </mxGeometry>
        </mxCell>
        <mxCell id="9pnh7lvO98Alzu9_AtAS-93" value="" style="shape=partialRectangle;html=1;whiteSpace=wrap;connectable=0;strokeColor=inherit;overflow=hidden;fillColor=none;top=0;left=0;bottom=0;right=0;pointerEvents=1;" parent="9pnh7lvO98Alzu9_AtAS-88" vertex="1">
          <mxGeometry x="152" width="38" height="38" as="geometry">
            <mxRectangle width="38" height="38" as="alternateBounds" />
          </mxGeometry>
        </mxCell>
        <mxCell id="9pnh7lvO98Alzu9_AtAS-95" value="" style="shape=partialRectangle;html=1;whiteSpace=wrap;connectable=0;strokeColor=#82b366;overflow=hidden;fillColor=#d5e8d4;top=0;left=0;bottom=0;right=0;pointerEvents=1;fillStyle=auto;gradientColor=#97d077;" parent="9pnh7lvO98Alzu9_AtAS-185" vertex="1">
          <mxGeometry x="152.00015760375925" width="37.99984239624072" height="38" as="geometry">
            <mxRectangle width="90" height="90" as="alternateBounds" />
          </mxGeometry>
        </mxCell>
        <mxCell id="9pnh7lvO98Alzu9_AtAS-97" value="" style="shape=waypoint;sketch=0;fillStyle=solid;size=6;pointerEvents=1;points=[];fillColor=#1ba1e2;resizable=0;rotatable=0;perimeter=centerPerimeter;snapToPoint=1;fontColor=#ffffff;strokeColor=#006EAF;strokeWidth=3;" parent="9pnh7lvO98Alzu9_AtAS-185" vertex="1">
          <mxGeometry x="90.7774012799084" y="128.77777777777777" width="20" height="20" as="geometry" />
        </mxCell>
        <mxCell id="9pnh7lvO98Alzu9_AtAS-98" style="edgeStyle=orthogonalEdgeStyle;rounded=0;orthogonalLoop=1;jettySize=auto;html=1;entryX=0.79;entryY=0.77;entryDx=0;entryDy=0;entryPerimeter=0;fillColor=#1ba1e2;strokeColor=#006EAF;strokeWidth=3;" parent="9pnh7lvO98Alzu9_AtAS-185" source="9pnh7lvO98Alzu9_AtAS-123" target="9pnh7lvO98Alzu9_AtAS-97" edge="1">
          <mxGeometry relative="1" as="geometry">
            <mxPoint x="69.66637772644123" y="133" as="sourcePoint" />
          </mxGeometry>
        </mxCell>
        <mxCell id="9pnh7lvO98Alzu9_AtAS-99" value="" style="shape=waypoint;sketch=0;fillStyle=solid;size=6;pointerEvents=1;points=[];fillColor=#1ba1e2;resizable=0;rotatable=0;perimeter=centerPerimeter;snapToPoint=1;fontColor=#ffffff;strokeColor=#006EAF;strokeWidth=3;" parent="9pnh7lvO98Alzu9_AtAS-185" vertex="1">
          <mxGeometry x="128.77724367614917" y="128.77777777777777" width="20" height="20" as="geometry" />
        </mxCell>
        <mxCell id="9pnh7lvO98Alzu9_AtAS-100" style="edgeStyle=orthogonalEdgeStyle;rounded=0;orthogonalLoop=1;jettySize=auto;html=1;entryX=0.81;entryY=0.97;entryDx=0;entryDy=0;entryPerimeter=0;fillColor=#1ba1e2;strokeColor=#006EAF;strokeWidth=3;" parent="9pnh7lvO98Alzu9_AtAS-185" source="9pnh7lvO98Alzu9_AtAS-97" target="9pnh7lvO98Alzu9_AtAS-99" edge="1">
          <mxGeometry relative="1" as="geometry" />
        </mxCell>
        <mxCell id="9pnh7lvO98Alzu9_AtAS-101" value="" style="shape=waypoint;sketch=0;fillStyle=solid;size=6;pointerEvents=1;points=[];fillColor=#1ba1e2;resizable=0;rotatable=0;perimeter=centerPerimeter;snapToPoint=1;fontColor=#ffffff;strokeColor=#006EAF;strokeWidth=3;" parent="9pnh7lvO98Alzu9_AtAS-185" vertex="1">
          <mxGeometry x="128.77724367614917" y="92.88888888888886" width="20" height="20" as="geometry" />
        </mxCell>
        <mxCell id="9pnh7lvO98Alzu9_AtAS-102" style="edgeStyle=orthogonalEdgeStyle;rounded=0;orthogonalLoop=1;jettySize=auto;html=1;entryX=0.49;entryY=0.82;entryDx=0;entryDy=0;entryPerimeter=0;fillColor=#1ba1e2;strokeColor=#006EAF;strokeWidth=3;" parent="9pnh7lvO98Alzu9_AtAS-185" source="9pnh7lvO98Alzu9_AtAS-99" target="9pnh7lvO98Alzu9_AtAS-101" edge="1">
          <mxGeometry relative="1" as="geometry" />
        </mxCell>
        <mxCell id="9pnh7lvO98Alzu9_AtAS-103" value="" style="shape=waypoint;sketch=0;fillStyle=solid;size=6;pointerEvents=1;points=[];fillColor=#1ba1e2;resizable=0;rotatable=0;perimeter=centerPerimeter;snapToPoint=1;fontColor=#ffffff;strokeColor=#006EAF;strokeWidth=3;" parent="9pnh7lvO98Alzu9_AtAS-185" vertex="1">
          <mxGeometry x="166.77708607238986" y="92.88888888888886" width="20" height="20" as="geometry" />
        </mxCell>
        <mxCell id="9pnh7lvO98Alzu9_AtAS-104" style="edgeStyle=orthogonalEdgeStyle;rounded=0;orthogonalLoop=1;jettySize=auto;html=1;fillColor=#1ba1e2;strokeColor=#006EAF;strokeWidth=3;" parent="9pnh7lvO98Alzu9_AtAS-185" source="9pnh7lvO98Alzu9_AtAS-101" target="9pnh7lvO98Alzu9_AtAS-103" edge="1">
          <mxGeometry relative="1" as="geometry" />
        </mxCell>
        <mxCell id="9pnh7lvO98Alzu9_AtAS-106" value="" style="shape=waypoint;sketch=0;fillStyle=solid;size=6;pointerEvents=1;points=[];fillColor=#1ba1e2;resizable=0;rotatable=0;perimeter=centerPerimeter;snapToPoint=1;fontColor=#ffffff;strokeColor=#006EAF;strokeWidth=3;" parent="9pnh7lvO98Alzu9_AtAS-185" vertex="1">
          <mxGeometry x="166.77708607238986" y="52.77777777777778" width="20" height="20" as="geometry" />
        </mxCell>
        <mxCell id="9pnh7lvO98Alzu9_AtAS-107" style="edgeStyle=orthogonalEdgeStyle;rounded=0;orthogonalLoop=1;jettySize=auto;html=1;entryX=0.27;entryY=0.89;entryDx=0;entryDy=0;entryPerimeter=0;fillColor=#1ba1e2;strokeColor=#006EAF;strokeWidth=3;" parent="9pnh7lvO98Alzu9_AtAS-185" source="9pnh7lvO98Alzu9_AtAS-103" target="9pnh7lvO98Alzu9_AtAS-106" edge="1">
          <mxGeometry relative="1" as="geometry" />
        </mxCell>
        <mxCell id="9pnh7lvO98Alzu9_AtAS-108" value="" style="shape=partialRectangle;html=1;whiteSpace=wrap;connectable=0;strokeColor=inherit;overflow=hidden;fillColor=#999999;top=0;left=0;bottom=0;right=0;pointerEvents=1;" parent="9pnh7lvO98Alzu9_AtAS-185" vertex="1">
          <mxGeometry x="75.99968479248145" y="76" width="37.99984239624072" height="38" as="geometry">
            <mxRectangle width="90" height="90" as="alternateBounds" />
          </mxGeometry>
        </mxCell>
        <mxCell id="9pnh7lvO98Alzu9_AtAS-109" value="" style="shape=partialRectangle;html=1;whiteSpace=wrap;connectable=0;strokeColor=inherit;overflow=hidden;fillColor=#999999;top=0;left=0;bottom=0;right=0;pointerEvents=1;" parent="9pnh7lvO98Alzu9_AtAS-185" vertex="1">
          <mxGeometry y="152" width="37.99984239624072" height="38" as="geometry">
            <mxRectangle width="90" height="90" as="alternateBounds" />
          </mxGeometry>
        </mxCell>
        <mxCell id="9pnh7lvO98Alzu9_AtAS-123" value="" style="shape=waypoint;sketch=0;fillStyle=solid;size=6;pointerEvents=1;points=[];fillColor=none;resizable=0;rotatable=0;perimeter=centerPerimeter;snapToPoint=1;" parent="9pnh7lvO98Alzu9_AtAS-185" vertex="1">
          <mxGeometry x="52.77659574958329" y="128.77657142857137" width="20" height="20" as="geometry" />
        </mxCell>
        <mxCell id="9pnh7lvO98Alzu9_AtAS-124" value="" style="shape=waypoint;sketch=0;fillStyle=solid;size=6;pointerEvents=1;points=[];fillColor=none;resizable=0;rotatable=0;perimeter=centerPerimeter;snapToPoint=1;" parent="9pnh7lvO98Alzu9_AtAS-185" vertex="1">
          <mxGeometry x="166.77664828416968" y="13.571428571428568" width="20" height="20" as="geometry" />
        </mxCell>
        <mxCell id="9pnh7lvO98Alzu9_AtAS-105" style="edgeStyle=orthogonalEdgeStyle;rounded=0;orthogonalLoop=1;jettySize=auto;html=1;fillColor=#1ba1e2;strokeColor=#006EAF;strokeWidth=3;" parent="9pnh7lvO98Alzu9_AtAS-185" source="9pnh7lvO98Alzu9_AtAS-106" target="9pnh7lvO98Alzu9_AtAS-124" edge="1">
          <mxGeometry relative="1" as="geometry">
            <mxPoint x="170.99929078308307" y="25.333333333333368" as="targetPoint" />
          </mxGeometry>
        </mxCell>
        <mxCell id="9pnh7lvO98Alzu9_AtAS-186" value="" style="group;aspect=fixed;" parent="1" vertex="1" connectable="0">
          <mxGeometry x="630" y="680" width="190" height="190" as="geometry" />
        </mxCell>
        <mxCell id="9pnh7lvO98Alzu9_AtAS-126" value="" style="shape=table;startSize=0;container=1;collapsible=0;childLayout=tableLayout;" parent="9pnh7lvO98Alzu9_AtAS-186" vertex="1">
          <mxGeometry width="189.99921198120373" height="189.99999999999997" as="geometry" />
        </mxCell>
        <mxCell id="9pnh7lvO98Alzu9_AtAS-127" value="" style="shape=tableRow;horizontal=0;startSize=0;swimlaneHead=0;swimlaneBody=0;strokeColor=inherit;top=0;left=0;bottom=0;right=0;collapsible=0;dropTarget=0;fillColor=none;points=[[0,0.5],[1,0.5]];portConstraint=eastwest;" parent="9pnh7lvO98Alzu9_AtAS-126" vertex="1">
          <mxGeometry width="189.99921198120373" height="38" as="geometry" />
        </mxCell>
        <mxCell id="9pnh7lvO98Alzu9_AtAS-128" value="" style="shape=partialRectangle;html=1;whiteSpace=wrap;connectable=0;strokeColor=inherit;overflow=hidden;fillColor=none;top=0;left=0;bottom=0;right=0;pointerEvents=1;" parent="9pnh7lvO98Alzu9_AtAS-127" vertex="1">
          <mxGeometry width="38" height="38" as="geometry">
            <mxRectangle width="38" height="38" as="alternateBounds" />
          </mxGeometry>
        </mxCell>
        <mxCell id="9pnh7lvO98Alzu9_AtAS-129" value="" style="shape=partialRectangle;html=1;whiteSpace=wrap;connectable=0;strokeColor=#C73500;overflow=hidden;fillColor=#999999;top=0;left=0;bottom=0;right=0;pointerEvents=1;fontColor=#000000;" parent="9pnh7lvO98Alzu9_AtAS-127" vertex="1">
          <mxGeometry x="38" width="38" height="38" as="geometry">
            <mxRectangle width="38" height="38" as="alternateBounds" />
          </mxGeometry>
        </mxCell>
        <mxCell id="9pnh7lvO98Alzu9_AtAS-130" value="" style="shape=partialRectangle;html=1;whiteSpace=wrap;connectable=0;strokeColor=inherit;overflow=hidden;fillColor=none;top=0;left=0;bottom=0;right=0;pointerEvents=1;" parent="9pnh7lvO98Alzu9_AtAS-127" vertex="1">
          <mxGeometry x="76" width="38" height="38" as="geometry">
            <mxRectangle width="38" height="38" as="alternateBounds" />
          </mxGeometry>
        </mxCell>
        <mxCell id="9pnh7lvO98Alzu9_AtAS-131" value="" style="shape=partialRectangle;html=1;whiteSpace=wrap;connectable=0;strokeColor=inherit;overflow=hidden;fillColor=none;top=0;left=0;bottom=0;right=0;pointerEvents=1;" parent="9pnh7lvO98Alzu9_AtAS-127" vertex="1">
          <mxGeometry x="114" width="38" height="38" as="geometry">
            <mxRectangle width="38" height="38" as="alternateBounds" />
          </mxGeometry>
        </mxCell>
        <mxCell id="9pnh7lvO98Alzu9_AtAS-132" value="" style="shape=partialRectangle;html=1;whiteSpace=wrap;connectable=0;strokeColor=inherit;overflow=hidden;fillColor=none;top=0;left=0;bottom=0;right=0;pointerEvents=1;" parent="9pnh7lvO98Alzu9_AtAS-127" vertex="1">
          <mxGeometry x="152" width="38" height="38" as="geometry">
            <mxRectangle width="38" height="38" as="alternateBounds" />
          </mxGeometry>
        </mxCell>
        <mxCell id="9pnh7lvO98Alzu9_AtAS-133" value="" style="shape=tableRow;horizontal=0;startSize=0;swimlaneHead=0;swimlaneBody=0;strokeColor=inherit;top=0;left=0;bottom=0;right=0;collapsible=0;dropTarget=0;fillColor=none;points=[[0,0.5],[1,0.5]];portConstraint=eastwest;" parent="9pnh7lvO98Alzu9_AtAS-126" vertex="1">
          <mxGeometry y="38" width="189.99921198120373" height="38" as="geometry" />
        </mxCell>
        <mxCell id="9pnh7lvO98Alzu9_AtAS-134" value="" style="shape=partialRectangle;html=1;whiteSpace=wrap;connectable=0;strokeColor=inherit;overflow=hidden;fillColor=none;top=0;left=0;bottom=0;right=0;pointerEvents=1;" parent="9pnh7lvO98Alzu9_AtAS-133" vertex="1">
          <mxGeometry width="38" height="38" as="geometry">
            <mxRectangle width="38" height="38" as="alternateBounds" />
          </mxGeometry>
        </mxCell>
        <mxCell id="9pnh7lvO98Alzu9_AtAS-135" value="" style="shape=partialRectangle;html=1;whiteSpace=wrap;connectable=0;strokeColor=inherit;overflow=hidden;fillColor=none;top=0;left=0;bottom=0;right=0;pointerEvents=1;" parent="9pnh7lvO98Alzu9_AtAS-133" vertex="1">
          <mxGeometry x="38" width="38" height="38" as="geometry">
            <mxRectangle width="38" height="38" as="alternateBounds" />
          </mxGeometry>
        </mxCell>
        <mxCell id="9pnh7lvO98Alzu9_AtAS-136" value="" style="shape=partialRectangle;html=1;whiteSpace=wrap;connectable=0;strokeColor=inherit;overflow=hidden;fillColor=none;top=0;left=0;bottom=0;right=0;pointerEvents=1;" parent="9pnh7lvO98Alzu9_AtAS-133" vertex="1">
          <mxGeometry x="76" width="38" height="38" as="geometry">
            <mxRectangle width="38" height="38" as="alternateBounds" />
          </mxGeometry>
        </mxCell>
        <mxCell id="9pnh7lvO98Alzu9_AtAS-137" value="" style="shape=partialRectangle;html=1;whiteSpace=wrap;connectable=0;strokeColor=inherit;overflow=hidden;fillColor=none;top=0;left=0;bottom=0;right=0;pointerEvents=1;" parent="9pnh7lvO98Alzu9_AtAS-133" vertex="1">
          <mxGeometry x="114" width="38" height="38" as="geometry">
            <mxRectangle width="38" height="38" as="alternateBounds" />
          </mxGeometry>
        </mxCell>
        <mxCell id="9pnh7lvO98Alzu9_AtAS-138" value="" style="shape=partialRectangle;html=1;whiteSpace=wrap;connectable=0;strokeColor=inherit;overflow=hidden;fillColor=none;top=0;left=0;bottom=0;right=0;pointerEvents=1;" parent="9pnh7lvO98Alzu9_AtAS-133" vertex="1">
          <mxGeometry x="152" width="38" height="38" as="geometry">
            <mxRectangle width="38" height="38" as="alternateBounds" />
          </mxGeometry>
        </mxCell>
        <mxCell id="9pnh7lvO98Alzu9_AtAS-139" value="" style="shape=tableRow;horizontal=0;startSize=0;swimlaneHead=0;swimlaneBody=0;strokeColor=inherit;top=0;left=0;bottom=0;right=0;collapsible=0;dropTarget=0;fillColor=none;points=[[0,0.5],[1,0.5]];portConstraint=eastwest;" parent="9pnh7lvO98Alzu9_AtAS-126" vertex="1">
          <mxGeometry y="76" width="189.99921198120373" height="38" as="geometry" />
        </mxCell>
        <mxCell id="9pnh7lvO98Alzu9_AtAS-140" value="" style="shape=partialRectangle;html=1;whiteSpace=wrap;connectable=0;strokeColor=inherit;overflow=hidden;fillColor=none;top=0;left=0;bottom=0;right=0;pointerEvents=1;" parent="9pnh7lvO98Alzu9_AtAS-139" vertex="1">
          <mxGeometry width="38" height="38" as="geometry">
            <mxRectangle width="38" height="38" as="alternateBounds" />
          </mxGeometry>
        </mxCell>
        <mxCell id="9pnh7lvO98Alzu9_AtAS-141" value="" style="shape=partialRectangle;html=1;whiteSpace=wrap;connectable=0;strokeColor=inherit;overflow=hidden;fillColor=none;top=0;left=0;bottom=0;right=0;pointerEvents=1;" parent="9pnh7lvO98Alzu9_AtAS-139" vertex="1">
          <mxGeometry x="38" width="38" height="38" as="geometry">
            <mxRectangle width="38" height="38" as="alternateBounds" />
          </mxGeometry>
        </mxCell>
        <mxCell id="9pnh7lvO98Alzu9_AtAS-142" value="" style="shape=partialRectangle;html=1;whiteSpace=wrap;connectable=0;strokeColor=inherit;overflow=hidden;fillColor=none;top=0;left=0;bottom=0;right=0;pointerEvents=1;" parent="9pnh7lvO98Alzu9_AtAS-139" vertex="1">
          <mxGeometry x="76" width="38" height="38" as="geometry">
            <mxRectangle width="38" height="38" as="alternateBounds" />
          </mxGeometry>
        </mxCell>
        <mxCell id="9pnh7lvO98Alzu9_AtAS-143" value="" style="shape=partialRectangle;html=1;whiteSpace=wrap;connectable=0;strokeColor=inherit;overflow=hidden;fillColor=none;top=0;left=0;bottom=0;right=0;pointerEvents=1;" parent="9pnh7lvO98Alzu9_AtAS-139" vertex="1">
          <mxGeometry x="114" width="38" height="38" as="geometry">
            <mxRectangle width="38" height="38" as="alternateBounds" />
          </mxGeometry>
        </mxCell>
        <mxCell id="9pnh7lvO98Alzu9_AtAS-144" value="" style="shape=partialRectangle;html=1;whiteSpace=wrap;connectable=0;strokeColor=inherit;overflow=hidden;fillColor=none;top=0;left=0;bottom=0;right=0;pointerEvents=1;" parent="9pnh7lvO98Alzu9_AtAS-139" vertex="1">
          <mxGeometry x="152" width="38" height="38" as="geometry">
            <mxRectangle width="38" height="38" as="alternateBounds" />
          </mxGeometry>
        </mxCell>
        <mxCell id="9pnh7lvO98Alzu9_AtAS-145" value="" style="shape=waypoint;sketch=0;size=6;pointerEvents=1;points=[];fillColor=none;resizable=0;rotatable=0;perimeter=centerPerimeter;snapToPoint=1;" parent="9pnh7lvO98Alzu9_AtAS-139" vertex="1">
          <mxGeometry x="190" height="38" as="geometry">
            <mxRectangle width="NaN" height="38" as="alternateBounds" />
          </mxGeometry>
        </mxCell>
        <mxCell id="9pnh7lvO98Alzu9_AtAS-146" value="" style="shape=tableRow;horizontal=0;startSize=0;swimlaneHead=0;swimlaneBody=0;strokeColor=inherit;top=0;left=0;bottom=0;right=0;collapsible=0;dropTarget=0;fillColor=none;points=[[0,0.5],[1,0.5]];portConstraint=eastwest;" parent="9pnh7lvO98Alzu9_AtAS-126" vertex="1">
          <mxGeometry y="114" width="189.99921198120373" height="38" as="geometry" />
        </mxCell>
        <mxCell id="9pnh7lvO98Alzu9_AtAS-147" value="" style="shape=partialRectangle;html=1;whiteSpace=wrap;connectable=0;strokeColor=inherit;overflow=hidden;fillColor=none;top=0;left=0;bottom=0;right=0;pointerEvents=1;" parent="9pnh7lvO98Alzu9_AtAS-146" vertex="1">
          <mxGeometry width="38" height="38" as="geometry">
            <mxRectangle width="38" height="38" as="alternateBounds" />
          </mxGeometry>
        </mxCell>
        <mxCell id="9pnh7lvO98Alzu9_AtAS-148" value="" style="shape=partialRectangle;html=1;whiteSpace=wrap;connectable=0;strokeColor=#d79b00;overflow=hidden;fillColor=#ffcd28;top=0;left=0;bottom=0;right=0;pointerEvents=1;fillStyle=auto;gradientColor=#ffa500;" parent="9pnh7lvO98Alzu9_AtAS-146" vertex="1">
          <mxGeometry x="38" width="38" height="38" as="geometry">
            <mxRectangle width="38" height="38" as="alternateBounds" />
          </mxGeometry>
        </mxCell>
        <mxCell id="9pnh7lvO98Alzu9_AtAS-149" value="" style="shape=partialRectangle;html=1;whiteSpace=wrap;connectable=0;strokeColor=inherit;overflow=hidden;fillColor=none;top=0;left=0;bottom=0;right=0;pointerEvents=1;" parent="9pnh7lvO98Alzu9_AtAS-146" vertex="1">
          <mxGeometry x="76" width="38" height="38" as="geometry">
            <mxRectangle width="38" height="38" as="alternateBounds" />
          </mxGeometry>
        </mxCell>
        <mxCell id="9pnh7lvO98Alzu9_AtAS-150" value="" style="shape=partialRectangle;html=1;whiteSpace=wrap;connectable=0;strokeColor=inherit;overflow=hidden;fillColor=none;top=0;left=0;bottom=0;right=0;pointerEvents=1;" parent="9pnh7lvO98Alzu9_AtAS-146" vertex="1">
          <mxGeometry x="114" width="38" height="38" as="geometry">
            <mxRectangle width="38" height="38" as="alternateBounds" />
          </mxGeometry>
        </mxCell>
        <mxCell id="9pnh7lvO98Alzu9_AtAS-151" value="" style="shape=partialRectangle;html=1;whiteSpace=wrap;connectable=0;strokeColor=inherit;overflow=hidden;fillColor=#999999;top=0;left=0;bottom=0;right=0;pointerEvents=1;" parent="9pnh7lvO98Alzu9_AtAS-146" vertex="1">
          <mxGeometry x="152" width="38" height="38" as="geometry">
            <mxRectangle width="38" height="38" as="alternateBounds" />
          </mxGeometry>
        </mxCell>
        <mxCell id="9pnh7lvO98Alzu9_AtAS-152" value="" style="shape=tableRow;horizontal=0;startSize=0;swimlaneHead=0;swimlaneBody=0;strokeColor=inherit;top=0;left=0;bottom=0;right=0;collapsible=0;dropTarget=0;fillColor=none;points=[[0,0.5],[1,0.5]];portConstraint=eastwest;" parent="9pnh7lvO98Alzu9_AtAS-126" vertex="1">
          <mxGeometry y="152" width="189.99921198120373" height="38" as="geometry" />
        </mxCell>
        <mxCell id="9pnh7lvO98Alzu9_AtAS-153" value="" style="shape=partialRectangle;html=1;whiteSpace=wrap;connectable=0;strokeColor=inherit;overflow=hidden;fillColor=none;top=0;left=0;bottom=0;right=0;pointerEvents=1;" parent="9pnh7lvO98Alzu9_AtAS-152" vertex="1">
          <mxGeometry width="38" height="38" as="geometry">
            <mxRectangle width="38" height="38" as="alternateBounds" />
          </mxGeometry>
        </mxCell>
        <mxCell id="9pnh7lvO98Alzu9_AtAS-154" value="" style="shape=partialRectangle;html=1;whiteSpace=wrap;connectable=0;strokeColor=inherit;overflow=hidden;fillColor=none;top=0;left=0;bottom=0;right=0;pointerEvents=1;" parent="9pnh7lvO98Alzu9_AtAS-152" vertex="1">
          <mxGeometry x="38" width="38" height="38" as="geometry">
            <mxRectangle width="38" height="38" as="alternateBounds" />
          </mxGeometry>
        </mxCell>
        <mxCell id="9pnh7lvO98Alzu9_AtAS-155" value="" style="shape=partialRectangle;html=1;whiteSpace=wrap;connectable=0;strokeColor=inherit;overflow=hidden;fillColor=none;top=0;left=0;bottom=0;right=0;pointerEvents=1;" parent="9pnh7lvO98Alzu9_AtAS-152" vertex="1">
          <mxGeometry x="76" width="38" height="38" as="geometry">
            <mxRectangle width="38" height="38" as="alternateBounds" />
          </mxGeometry>
        </mxCell>
        <mxCell id="9pnh7lvO98Alzu9_AtAS-156" value="" style="shape=partialRectangle;html=1;whiteSpace=wrap;connectable=0;strokeColor=inherit;overflow=hidden;fillColor=none;top=0;left=0;bottom=0;right=0;pointerEvents=1;" parent="9pnh7lvO98Alzu9_AtAS-152" vertex="1">
          <mxGeometry x="114" width="38" height="38" as="geometry">
            <mxRectangle width="38" height="38" as="alternateBounds" />
          </mxGeometry>
        </mxCell>
        <mxCell id="9pnh7lvO98Alzu9_AtAS-157" value="" style="shape=partialRectangle;html=1;whiteSpace=wrap;connectable=0;strokeColor=inherit;overflow=hidden;fillColor=none;top=0;left=0;bottom=0;right=0;pointerEvents=1;" parent="9pnh7lvO98Alzu9_AtAS-152" vertex="1">
          <mxGeometry x="152" width="38" height="38" as="geometry">
            <mxRectangle width="38" height="38" as="alternateBounds" />
          </mxGeometry>
        </mxCell>
        <mxCell id="9pnh7lvO98Alzu9_AtAS-158" value="" style="shape=partialRectangle;html=1;whiteSpace=wrap;connectable=0;strokeColor=#82b366;overflow=hidden;fillColor=#d5e8d4;top=0;left=0;bottom=0;right=0;pointerEvents=1;fillStyle=auto;gradientColor=#97d077;" parent="9pnh7lvO98Alzu9_AtAS-186" vertex="1">
          <mxGeometry x="152.00015760375925" width="37.99984239624073" height="38" as="geometry">
            <mxRectangle width="90" height="90" as="alternateBounds" />
          </mxGeometry>
        </mxCell>
        <mxCell id="9pnh7lvO98Alzu9_AtAS-168" value="" style="shape=waypoint;sketch=0;fillStyle=solid;size=6;pointerEvents=1;points=[];fillColor=#a20025;resizable=0;rotatable=0;perimeter=centerPerimeter;snapToPoint=1;fontColor=#ffffff;strokeColor=#6F0000;strokeWidth=3;" parent="9pnh7lvO98Alzu9_AtAS-186" vertex="1">
          <mxGeometry x="166.77708607238992" y="52.77777777777777" width="20" height="20" as="geometry" />
        </mxCell>
        <mxCell id="9pnh7lvO98Alzu9_AtAS-170" value="" style="shape=partialRectangle;html=1;whiteSpace=wrap;connectable=0;strokeColor=inherit;overflow=hidden;fillColor=#999999;top=0;left=0;bottom=0;right=0;pointerEvents=1;" parent="9pnh7lvO98Alzu9_AtAS-186" vertex="1">
          <mxGeometry x="75.99968479248146" y="76" width="37.99984239624073" height="38" as="geometry">
            <mxRectangle width="90" height="90" as="alternateBounds" />
          </mxGeometry>
        </mxCell>
        <mxCell id="9pnh7lvO98Alzu9_AtAS-171" value="" style="shape=partialRectangle;html=1;whiteSpace=wrap;connectable=0;strokeColor=inherit;overflow=hidden;fillColor=#999999;top=0;left=0;bottom=0;right=0;pointerEvents=1;" parent="9pnh7lvO98Alzu9_AtAS-186" vertex="1">
          <mxGeometry y="152" width="37.99984239624073" height="38" as="geometry">
            <mxRectangle width="90" height="90" as="alternateBounds" />
          </mxGeometry>
        </mxCell>
        <mxCell id="9pnh7lvO98Alzu9_AtAS-172" value="" style="shape=waypoint;sketch=0;fillStyle=auto;size=6;pointerEvents=1;points=[];fillColor=#a20025;resizable=0;rotatable=0;perimeter=centerPerimeter;snapToPoint=1;fontColor=#ffffff;strokeColor=#6F0000;strokeWidth=3;" parent="9pnh7lvO98Alzu9_AtAS-186" vertex="1">
          <mxGeometry x="52.77755888366769" y="90.77777777777773" width="20" height="20" as="geometry" />
        </mxCell>
        <mxCell id="9pnh7lvO98Alzu9_AtAS-173" style="edgeStyle=orthogonalEdgeStyle;rounded=0;orthogonalLoop=1;jettySize=auto;html=1;entryX=0.49;entryY=0.99;entryDx=0;entryDy=0;entryPerimeter=0;fillColor=#a20025;strokeColor=#6F0000;strokeWidth=3;exitX=0.559;exitY=0.159;exitDx=0;exitDy=0;exitPerimeter=0;" parent="9pnh7lvO98Alzu9_AtAS-186" source="9pnh7lvO98Alzu9_AtAS-181" target="9pnh7lvO98Alzu9_AtAS-172" edge="1">
          <mxGeometry relative="1" as="geometry">
            <mxPoint x="57.00002626729321" y="126.66666666666667" as="sourcePoint" />
          </mxGeometry>
        </mxCell>
        <mxCell id="9pnh7lvO98Alzu9_AtAS-174" value="" style="shape=waypoint;sketch=0;fillStyle=auto;size=6;pointerEvents=1;points=[];fillColor=#a20025;resizable=0;rotatable=0;perimeter=centerPerimeter;snapToPoint=1;fontColor=#ffffff;strokeColor=#6F0000;strokeWidth=3;" parent="9pnh7lvO98Alzu9_AtAS-186" vertex="1">
          <mxGeometry x="90.77740127990845" y="52.77777777777777" width="20" height="20" as="geometry" />
        </mxCell>
        <mxCell id="9pnh7lvO98Alzu9_AtAS-175" style="edgeStyle=orthogonalEdgeStyle;rounded=0;orthogonalLoop=1;jettySize=auto;html=1;fillColor=#a20025;strokeColor=#6F0000;strokeWidth=3;" parent="9pnh7lvO98Alzu9_AtAS-186" source="9pnh7lvO98Alzu9_AtAS-176" target="9pnh7lvO98Alzu9_AtAS-168" edge="1">
          <mxGeometry relative="1" as="geometry" />
        </mxCell>
        <mxCell id="9pnh7lvO98Alzu9_AtAS-176" value="" style="shape=waypoint;sketch=0;fillStyle=auto;size=6;pointerEvents=1;points=[];fillColor=#a20025;resizable=0;rotatable=0;perimeter=centerPerimeter;snapToPoint=1;fontColor=#ffffff;strokeColor=#6F0000;strokeWidth=3;" parent="9pnh7lvO98Alzu9_AtAS-186" vertex="1">
          <mxGeometry x="128.77724367614917" y="52.77777777777777" width="20" height="20" as="geometry" />
        </mxCell>
        <mxCell id="9pnh7lvO98Alzu9_AtAS-177" style="edgeStyle=orthogonalEdgeStyle;rounded=0;orthogonalLoop=1;jettySize=auto;html=1;entryX=0.29;entryY=0.61;entryDx=0;entryDy=0;entryPerimeter=0;fillColor=#a20025;strokeColor=#6F0000;strokeWidth=3;" parent="9pnh7lvO98Alzu9_AtAS-186" source="9pnh7lvO98Alzu9_AtAS-174" target="9pnh7lvO98Alzu9_AtAS-176" edge="1">
          <mxGeometry relative="1" as="geometry" />
        </mxCell>
        <mxCell id="9pnh7lvO98Alzu9_AtAS-178" value="" style="shape=waypoint;sketch=0;fillStyle=auto;size=6;pointerEvents=1;points=[];fillColor=#a20025;resizable=0;rotatable=0;perimeter=centerPerimeter;snapToPoint=1;fontColor=#ffffff;strokeColor=#6F0000;strokeWidth=3;" parent="9pnh7lvO98Alzu9_AtAS-186" vertex="1">
          <mxGeometry x="52.77755888366769" y="52.77777777777777" width="20" height="20" as="geometry" />
        </mxCell>
        <mxCell id="9pnh7lvO98Alzu9_AtAS-179" style="edgeStyle=orthogonalEdgeStyle;rounded=0;orthogonalLoop=1;jettySize=auto;html=1;entryX=0.65;entryY=0.93;entryDx=0;entryDy=0;entryPerimeter=0;fillColor=#a20025;strokeColor=#6F0000;strokeWidth=3;" parent="9pnh7lvO98Alzu9_AtAS-186" source="9pnh7lvO98Alzu9_AtAS-172" target="9pnh7lvO98Alzu9_AtAS-178" edge="1">
          <mxGeometry relative="1" as="geometry" />
        </mxCell>
        <mxCell id="9pnh7lvO98Alzu9_AtAS-180" style="edgeStyle=orthogonalEdgeStyle;rounded=0;orthogonalLoop=1;jettySize=auto;html=1;fillColor=#a20025;strokeColor=#6F0000;strokeWidth=3;" parent="9pnh7lvO98Alzu9_AtAS-186" source="9pnh7lvO98Alzu9_AtAS-178" target="9pnh7lvO98Alzu9_AtAS-174" edge="1">
          <mxGeometry relative="1" as="geometry" />
        </mxCell>
        <mxCell id="9pnh7lvO98Alzu9_AtAS-181" value="" style="shape=waypoint;sketch=0;fillStyle=solid;size=6;pointerEvents=1;points=[];fillColor=none;resizable=0;rotatable=0;perimeter=centerPerimeter;snapToPoint=1;" parent="9pnh7lvO98Alzu9_AtAS-186" vertex="1">
          <mxGeometry x="52.7765957495833" y="128.77657142857143" width="20" height="20" as="geometry" />
        </mxCell>
        <mxCell id="9pnh7lvO98Alzu9_AtAS-182" value="" style="shape=waypoint;sketch=0;fillStyle=solid;size=6;pointerEvents=1;points=[];fillColor=none;resizable=0;rotatable=0;perimeter=centerPerimeter;snapToPoint=1;" parent="9pnh7lvO98Alzu9_AtAS-186" vertex="1">
          <mxGeometry x="166.77664828416974" y="13.57142857142857" width="20" height="20" as="geometry" />
        </mxCell>
        <mxCell id="9pnh7lvO98Alzu9_AtAS-167" style="edgeStyle=orthogonalEdgeStyle;rounded=0;orthogonalLoop=1;jettySize=auto;html=1;fillColor=#1ba1e2;strokeColor=#6F0000;strokeWidth=3;" parent="9pnh7lvO98Alzu9_AtAS-186" source="9pnh7lvO98Alzu9_AtAS-168" target="9pnh7lvO98Alzu9_AtAS-182" edge="1">
          <mxGeometry relative="1" as="geometry">
            <mxPoint x="170.99929078308313" y="25.33333333333337" as="targetPoint" />
          </mxGeometry>
        </mxCell>
        <mxCell id="9pnh7lvO98Alzu9_AtAS-255" value="" style="group;aspect=fixed;" parent="1" vertex="1" connectable="0">
          <mxGeometry x="630" y="280" width="190" height="190" as="geometry" />
        </mxCell>
        <mxCell id="9pnh7lvO98Alzu9_AtAS-188" value="" style="shape=table;startSize=0;container=1;collapsible=0;childLayout=tableLayout;aspect=fixed;" parent="9pnh7lvO98Alzu9_AtAS-255" vertex="1">
          <mxGeometry width="189.99921198120367" height="189.99999999999997" as="geometry" />
        </mxCell>
        <mxCell id="9pnh7lvO98Alzu9_AtAS-189" value="" style="shape=tableRow;horizontal=0;startSize=0;swimlaneHead=0;swimlaneBody=0;strokeColor=inherit;top=0;left=0;bottom=0;right=0;collapsible=0;dropTarget=0;fillColor=none;points=[[0,0.5],[1,0.5]];portConstraint=eastwest;" parent="9pnh7lvO98Alzu9_AtAS-188" vertex="1">
          <mxGeometry width="189.99921198120367" height="38" as="geometry" />
        </mxCell>
        <mxCell id="9pnh7lvO98Alzu9_AtAS-190" value="" style="shape=partialRectangle;html=1;whiteSpace=wrap;connectable=0;strokeColor=inherit;overflow=hidden;fillColor=none;top=0;left=0;bottom=0;right=0;pointerEvents=1;" parent="9pnh7lvO98Alzu9_AtAS-189" vertex="1">
          <mxGeometry width="38" height="38" as="geometry">
            <mxRectangle width="38" height="38" as="alternateBounds" />
          </mxGeometry>
        </mxCell>
        <mxCell id="9pnh7lvO98Alzu9_AtAS-191" value="" style="shape=partialRectangle;html=1;whiteSpace=wrap;connectable=0;strokeColor=#C73500;overflow=hidden;fillColor=#999999;top=0;left=0;bottom=0;right=0;pointerEvents=1;fontColor=#000000;" parent="9pnh7lvO98Alzu9_AtAS-189" vertex="1">
          <mxGeometry x="38" width="38" height="38" as="geometry">
            <mxRectangle width="38" height="38" as="alternateBounds" />
          </mxGeometry>
        </mxCell>
        <mxCell id="9pnh7lvO98Alzu9_AtAS-192" value="" style="shape=partialRectangle;html=1;whiteSpace=wrap;connectable=0;strokeColor=inherit;overflow=hidden;fillColor=none;top=0;left=0;bottom=0;right=0;pointerEvents=1;" parent="9pnh7lvO98Alzu9_AtAS-189" vertex="1">
          <mxGeometry x="76" width="38" height="38" as="geometry">
            <mxRectangle width="38" height="38" as="alternateBounds" />
          </mxGeometry>
        </mxCell>
        <mxCell id="9pnh7lvO98Alzu9_AtAS-193" value="" style="shape=partialRectangle;html=1;whiteSpace=wrap;connectable=0;strokeColor=inherit;overflow=hidden;fillColor=none;top=0;left=0;bottom=0;right=0;pointerEvents=1;" parent="9pnh7lvO98Alzu9_AtAS-189" vertex="1">
          <mxGeometry x="114" width="38" height="38" as="geometry">
            <mxRectangle width="38" height="38" as="alternateBounds" />
          </mxGeometry>
        </mxCell>
        <mxCell id="9pnh7lvO98Alzu9_AtAS-194" value="" style="shape=partialRectangle;html=1;whiteSpace=wrap;connectable=0;strokeColor=inherit;overflow=hidden;fillColor=none;top=0;left=0;bottom=0;right=0;pointerEvents=1;" parent="9pnh7lvO98Alzu9_AtAS-189" vertex="1">
          <mxGeometry x="152" width="38" height="38" as="geometry">
            <mxRectangle width="38" height="38" as="alternateBounds" />
          </mxGeometry>
        </mxCell>
        <mxCell id="9pnh7lvO98Alzu9_AtAS-195" value="" style="shape=tableRow;horizontal=0;startSize=0;swimlaneHead=0;swimlaneBody=0;strokeColor=inherit;top=0;left=0;bottom=0;right=0;collapsible=0;dropTarget=0;fillColor=none;points=[[0,0.5],[1,0.5]];portConstraint=eastwest;" parent="9pnh7lvO98Alzu9_AtAS-188" vertex="1">
          <mxGeometry y="38" width="189.99921198120367" height="38" as="geometry" />
        </mxCell>
        <mxCell id="9pnh7lvO98Alzu9_AtAS-196" value="" style="shape=partialRectangle;html=1;whiteSpace=wrap;connectable=0;strokeColor=inherit;overflow=hidden;fillColor=none;top=0;left=0;bottom=0;right=0;pointerEvents=1;" parent="9pnh7lvO98Alzu9_AtAS-195" vertex="1">
          <mxGeometry width="38" height="38" as="geometry">
            <mxRectangle width="38" height="38" as="alternateBounds" />
          </mxGeometry>
        </mxCell>
        <mxCell id="9pnh7lvO98Alzu9_AtAS-197" value="" style="shape=partialRectangle;html=1;whiteSpace=wrap;connectable=0;strokeColor=inherit;overflow=hidden;fillColor=none;top=0;left=0;bottom=0;right=0;pointerEvents=1;" parent="9pnh7lvO98Alzu9_AtAS-195" vertex="1">
          <mxGeometry x="38" width="38" height="38" as="geometry">
            <mxRectangle width="38" height="38" as="alternateBounds" />
          </mxGeometry>
        </mxCell>
        <mxCell id="9pnh7lvO98Alzu9_AtAS-198" value="" style="shape=partialRectangle;html=1;whiteSpace=wrap;connectable=0;strokeColor=inherit;overflow=hidden;fillColor=none;top=0;left=0;bottom=0;right=0;pointerEvents=1;" parent="9pnh7lvO98Alzu9_AtAS-195" vertex="1">
          <mxGeometry x="76" width="38" height="38" as="geometry">
            <mxRectangle width="38" height="38" as="alternateBounds" />
          </mxGeometry>
        </mxCell>
        <mxCell id="9pnh7lvO98Alzu9_AtAS-199" value="" style="shape=partialRectangle;html=1;whiteSpace=wrap;connectable=0;strokeColor=inherit;overflow=hidden;fillColor=none;top=0;left=0;bottom=0;right=0;pointerEvents=1;" parent="9pnh7lvO98Alzu9_AtAS-195" vertex="1">
          <mxGeometry x="114" width="38" height="38" as="geometry">
            <mxRectangle width="38" height="38" as="alternateBounds" />
          </mxGeometry>
        </mxCell>
        <mxCell id="9pnh7lvO98Alzu9_AtAS-200" value="" style="shape=partialRectangle;html=1;whiteSpace=wrap;connectable=0;strokeColor=inherit;overflow=hidden;fillColor=none;top=0;left=0;bottom=0;right=0;pointerEvents=1;" parent="9pnh7lvO98Alzu9_AtAS-195" vertex="1">
          <mxGeometry x="152" width="38" height="38" as="geometry">
            <mxRectangle width="38" height="38" as="alternateBounds" />
          </mxGeometry>
        </mxCell>
        <mxCell id="9pnh7lvO98Alzu9_AtAS-201" value="" style="shape=tableRow;horizontal=0;startSize=0;swimlaneHead=0;swimlaneBody=0;strokeColor=inherit;top=0;left=0;bottom=0;right=0;collapsible=0;dropTarget=0;fillColor=none;points=[[0,0.5],[1,0.5]];portConstraint=eastwest;" parent="9pnh7lvO98Alzu9_AtAS-188" vertex="1">
          <mxGeometry y="76" width="189.99921198120367" height="38" as="geometry" />
        </mxCell>
        <mxCell id="9pnh7lvO98Alzu9_AtAS-202" value="" style="shape=partialRectangle;html=1;whiteSpace=wrap;connectable=0;strokeColor=inherit;overflow=hidden;fillColor=none;top=0;left=0;bottom=0;right=0;pointerEvents=1;" parent="9pnh7lvO98Alzu9_AtAS-201" vertex="1">
          <mxGeometry width="38" height="38" as="geometry">
            <mxRectangle width="38" height="38" as="alternateBounds" />
          </mxGeometry>
        </mxCell>
        <mxCell id="9pnh7lvO98Alzu9_AtAS-203" value="" style="shape=partialRectangle;html=1;whiteSpace=wrap;connectable=0;strokeColor=inherit;overflow=hidden;fillColor=none;top=0;left=0;bottom=0;right=0;pointerEvents=1;" parent="9pnh7lvO98Alzu9_AtAS-201" vertex="1">
          <mxGeometry x="38" width="38" height="38" as="geometry">
            <mxRectangle width="38" height="38" as="alternateBounds" />
          </mxGeometry>
        </mxCell>
        <mxCell id="9pnh7lvO98Alzu9_AtAS-204" value="" style="shape=partialRectangle;html=1;whiteSpace=wrap;connectable=0;strokeColor=inherit;overflow=hidden;fillColor=none;top=0;left=0;bottom=0;right=0;pointerEvents=1;" parent="9pnh7lvO98Alzu9_AtAS-201" vertex="1">
          <mxGeometry x="76" width="38" height="38" as="geometry">
            <mxRectangle width="38" height="38" as="alternateBounds" />
          </mxGeometry>
        </mxCell>
        <mxCell id="9pnh7lvO98Alzu9_AtAS-205" value="" style="shape=partialRectangle;html=1;whiteSpace=wrap;connectable=0;strokeColor=inherit;overflow=hidden;fillColor=none;top=0;left=0;bottom=0;right=0;pointerEvents=1;" parent="9pnh7lvO98Alzu9_AtAS-201" vertex="1">
          <mxGeometry x="114" width="38" height="38" as="geometry">
            <mxRectangle width="38" height="38" as="alternateBounds" />
          </mxGeometry>
        </mxCell>
        <mxCell id="9pnh7lvO98Alzu9_AtAS-206" value="" style="shape=partialRectangle;html=1;whiteSpace=wrap;connectable=0;strokeColor=inherit;overflow=hidden;fillColor=none;top=0;left=0;bottom=0;right=0;pointerEvents=1;" parent="9pnh7lvO98Alzu9_AtAS-201" vertex="1">
          <mxGeometry x="152" width="38" height="38" as="geometry">
            <mxRectangle width="38" height="38" as="alternateBounds" />
          </mxGeometry>
        </mxCell>
        <mxCell id="9pnh7lvO98Alzu9_AtAS-207" value="" style="shape=waypoint;sketch=0;size=6;pointerEvents=1;points=[];fillColor=none;resizable=0;rotatable=0;perimeter=centerPerimeter;snapToPoint=1;" parent="9pnh7lvO98Alzu9_AtAS-201" vertex="1">
          <mxGeometry x="190" height="38" as="geometry">
            <mxRectangle width="NaN" height="38" as="alternateBounds" />
          </mxGeometry>
        </mxCell>
        <mxCell id="9pnh7lvO98Alzu9_AtAS-208" value="" style="shape=tableRow;horizontal=0;startSize=0;swimlaneHead=0;swimlaneBody=0;strokeColor=inherit;top=0;left=0;bottom=0;right=0;collapsible=0;dropTarget=0;fillColor=none;points=[[0,0.5],[1,0.5]];portConstraint=eastwest;" parent="9pnh7lvO98Alzu9_AtAS-188" vertex="1">
          <mxGeometry y="114" width="189.99921198120367" height="38" as="geometry" />
        </mxCell>
        <mxCell id="9pnh7lvO98Alzu9_AtAS-209" value="" style="shape=partialRectangle;html=1;whiteSpace=wrap;connectable=0;strokeColor=inherit;overflow=hidden;fillColor=none;top=0;left=0;bottom=0;right=0;pointerEvents=1;" parent="9pnh7lvO98Alzu9_AtAS-208" vertex="1">
          <mxGeometry width="38" height="38" as="geometry">
            <mxRectangle width="38" height="38" as="alternateBounds" />
          </mxGeometry>
        </mxCell>
        <mxCell id="9pnh7lvO98Alzu9_AtAS-210" value="" style="shape=partialRectangle;html=1;whiteSpace=wrap;connectable=0;strokeColor=#d79b00;overflow=hidden;fillColor=#ffcd28;top=0;left=0;bottom=0;right=0;pointerEvents=1;fillStyle=auto;gradientColor=#ffa500;" parent="9pnh7lvO98Alzu9_AtAS-208" vertex="1">
          <mxGeometry x="38" width="38" height="38" as="geometry">
            <mxRectangle width="38" height="38" as="alternateBounds" />
          </mxGeometry>
        </mxCell>
        <mxCell id="9pnh7lvO98Alzu9_AtAS-211" value="" style="shape=partialRectangle;html=1;whiteSpace=wrap;connectable=0;strokeColor=inherit;overflow=hidden;fillColor=none;top=0;left=0;bottom=0;right=0;pointerEvents=1;" parent="9pnh7lvO98Alzu9_AtAS-208" vertex="1">
          <mxGeometry x="76" width="38" height="38" as="geometry">
            <mxRectangle width="38" height="38" as="alternateBounds" />
          </mxGeometry>
        </mxCell>
        <mxCell id="9pnh7lvO98Alzu9_AtAS-212" value="" style="shape=partialRectangle;html=1;whiteSpace=wrap;connectable=0;strokeColor=inherit;overflow=hidden;fillColor=none;top=0;left=0;bottom=0;right=0;pointerEvents=1;" parent="9pnh7lvO98Alzu9_AtAS-208" vertex="1">
          <mxGeometry x="114" width="38" height="38" as="geometry">
            <mxRectangle width="38" height="38" as="alternateBounds" />
          </mxGeometry>
        </mxCell>
        <mxCell id="9pnh7lvO98Alzu9_AtAS-213" value="" style="shape=partialRectangle;html=1;whiteSpace=wrap;connectable=0;strokeColor=inherit;overflow=hidden;fillColor=#999999;top=0;left=0;bottom=0;right=0;pointerEvents=1;" parent="9pnh7lvO98Alzu9_AtAS-208" vertex="1">
          <mxGeometry x="152" width="38" height="38" as="geometry">
            <mxRectangle width="38" height="38" as="alternateBounds" />
          </mxGeometry>
        </mxCell>
        <mxCell id="9pnh7lvO98Alzu9_AtAS-214" value="" style="shape=tableRow;horizontal=0;startSize=0;swimlaneHead=0;swimlaneBody=0;strokeColor=inherit;top=0;left=0;bottom=0;right=0;collapsible=0;dropTarget=0;fillColor=none;points=[[0,0.5],[1,0.5]];portConstraint=eastwest;" parent="9pnh7lvO98Alzu9_AtAS-188" vertex="1">
          <mxGeometry y="152" width="189.99921198120367" height="38" as="geometry" />
        </mxCell>
        <mxCell id="9pnh7lvO98Alzu9_AtAS-215" value="" style="shape=partialRectangle;html=1;whiteSpace=wrap;connectable=0;strokeColor=inherit;overflow=hidden;fillColor=none;top=0;left=0;bottom=0;right=0;pointerEvents=1;" parent="9pnh7lvO98Alzu9_AtAS-214" vertex="1">
          <mxGeometry width="38" height="38" as="geometry">
            <mxRectangle width="38" height="38" as="alternateBounds" />
          </mxGeometry>
        </mxCell>
        <mxCell id="9pnh7lvO98Alzu9_AtAS-216" value="" style="shape=partialRectangle;html=1;whiteSpace=wrap;connectable=0;strokeColor=inherit;overflow=hidden;fillColor=none;top=0;left=0;bottom=0;right=0;pointerEvents=1;" parent="9pnh7lvO98Alzu9_AtAS-214" vertex="1">
          <mxGeometry x="38" width="38" height="38" as="geometry">
            <mxRectangle width="38" height="38" as="alternateBounds" />
          </mxGeometry>
        </mxCell>
        <mxCell id="9pnh7lvO98Alzu9_AtAS-217" value="" style="shape=partialRectangle;html=1;whiteSpace=wrap;connectable=0;strokeColor=inherit;overflow=hidden;fillColor=none;top=0;left=0;bottom=0;right=0;pointerEvents=1;" parent="9pnh7lvO98Alzu9_AtAS-214" vertex="1">
          <mxGeometry x="76" width="38" height="38" as="geometry">
            <mxRectangle width="38" height="38" as="alternateBounds" />
          </mxGeometry>
        </mxCell>
        <mxCell id="9pnh7lvO98Alzu9_AtAS-218" value="" style="shape=partialRectangle;html=1;whiteSpace=wrap;connectable=0;strokeColor=inherit;overflow=hidden;fillColor=none;top=0;left=0;bottom=0;right=0;pointerEvents=1;" parent="9pnh7lvO98Alzu9_AtAS-214" vertex="1">
          <mxGeometry x="114" width="38" height="38" as="geometry">
            <mxRectangle width="38" height="38" as="alternateBounds" />
          </mxGeometry>
        </mxCell>
        <mxCell id="9pnh7lvO98Alzu9_AtAS-219" value="" style="shape=partialRectangle;html=1;whiteSpace=wrap;connectable=0;strokeColor=inherit;overflow=hidden;fillColor=none;top=0;left=0;bottom=0;right=0;pointerEvents=1;" parent="9pnh7lvO98Alzu9_AtAS-214" vertex="1">
          <mxGeometry x="152" width="38" height="38" as="geometry">
            <mxRectangle width="38" height="38" as="alternateBounds" />
          </mxGeometry>
        </mxCell>
        <mxCell id="9pnh7lvO98Alzu9_AtAS-220" value="" style="shape=partialRectangle;html=1;whiteSpace=wrap;connectable=0;strokeColor=#82b366;overflow=hidden;fillColor=#d5e8d4;top=0;left=0;bottom=0;right=0;pointerEvents=1;fillStyle=auto;gradientColor=#97d077;" parent="9pnh7lvO98Alzu9_AtAS-255" vertex="1">
          <mxGeometry x="152.0001576037593" width="37.99984239624073" height="38" as="geometry">
            <mxRectangle width="90" height="90" as="alternateBounds" />
          </mxGeometry>
        </mxCell>
        <mxCell id="9pnh7lvO98Alzu9_AtAS-231" value="" style="shape=partialRectangle;html=1;whiteSpace=wrap;connectable=0;strokeColor=inherit;overflow=hidden;fillColor=#999999;top=0;left=0;bottom=0;right=0;pointerEvents=1;" parent="9pnh7lvO98Alzu9_AtAS-255" vertex="1">
          <mxGeometry x="75.99968479248137" y="76" width="37.99984239624073" height="38" as="geometry">
            <mxRectangle width="90" height="90" as="alternateBounds" />
          </mxGeometry>
        </mxCell>
        <mxCell id="9pnh7lvO98Alzu9_AtAS-232" value="" style="shape=partialRectangle;html=1;whiteSpace=wrap;connectable=0;strokeColor=inherit;overflow=hidden;fillColor=#999999;top=0;left=0;bottom=0;right=0;pointerEvents=1;" parent="9pnh7lvO98Alzu9_AtAS-255" vertex="1">
          <mxGeometry y="152" width="37.99984239624073" height="38" as="geometry">
            <mxRectangle width="90" height="90" as="alternateBounds" />
          </mxGeometry>
        </mxCell>
        <mxCell id="9pnh7lvO98Alzu9_AtAS-233" value="" style="shape=waypoint;sketch=0;fillStyle=solid;size=6;pointerEvents=1;points=[];fillColor=none;resizable=0;rotatable=0;perimeter=centerPerimeter;snapToPoint=1;" parent="9pnh7lvO98Alzu9_AtAS-255" vertex="1">
          <mxGeometry x="52.7765957495832" y="128.7765714285714" width="20" height="20" as="geometry" />
        </mxCell>
        <mxCell id="9pnh7lvO98Alzu9_AtAS-234" value="" style="shape=waypoint;sketch=0;fillStyle=solid;size=6;pointerEvents=1;points=[];fillColor=none;resizable=0;rotatable=0;perimeter=centerPerimeter;snapToPoint=1;" parent="9pnh7lvO98Alzu9_AtAS-255" vertex="1">
          <mxGeometry x="161.95426733178869" y="9.952380952380953" width="20" height="20" as="geometry" />
        </mxCell>
        <mxCell id="9pnh7lvO98Alzu9_AtAS-236" value="" style="shape=waypoint;sketch=0;fillStyle=solid;size=6;pointerEvents=1;points=[];fillColor=#FCFCFC;resizable=0;rotatable=0;perimeter=centerPerimeter;snapToPoint=1;fontColor=#ffffff;strokeColor=#FCFCFC;strokeWidth=3;" parent="9pnh7lvO98Alzu9_AtAS-255" vertex="1">
          <mxGeometry x="9.954862723768134" y="128.77777777777774" width="20" height="20" as="geometry" />
        </mxCell>
        <mxCell id="9pnh7lvO98Alzu9_AtAS-237" style="edgeStyle=orthogonalEdgeStyle;rounded=0;orthogonalLoop=1;jettySize=auto;html=1;entryX=0.79;entryY=0.623;entryDx=0;entryDy=0;entryPerimeter=0;fillColor=#1ba1e2;strokeColor=#FCFCFC;strokeWidth=3;" parent="9pnh7lvO98Alzu9_AtAS-255" source="9pnh7lvO98Alzu9_AtAS-233" target="9pnh7lvO98Alzu9_AtAS-236" edge="1">
          <mxGeometry relative="1" as="geometry">
            <mxPoint x="70.57142857142857" y="146.57142857142858" as="sourcePoint" />
            <mxPoint x="108.57142857142857" y="146.57142857142858" as="targetPoint" />
          </mxGeometry>
        </mxCell>
        <mxCell id="9pnh7lvO98Alzu9_AtAS-238" value="" style="shape=waypoint;sketch=0;fillStyle=solid;size=6;pointerEvents=1;points=[];fillColor=#FCFCFC;resizable=0;rotatable=0;perimeter=centerPerimeter;snapToPoint=1;fontColor=#ffffff;strokeColor=#FCFCFC;strokeWidth=3;" parent="9pnh7lvO98Alzu9_AtAS-255" vertex="1">
          <mxGeometry x="9.954862723768134" y="85.9553968253968" width="20" height="20" as="geometry" />
        </mxCell>
        <mxCell id="9pnh7lvO98Alzu9_AtAS-240" value="" style="shape=waypoint;sketch=0;fillStyle=solid;size=6;pointerEvents=1;points=[];fillColor=#FCFCFC;resizable=0;rotatable=0;perimeter=centerPerimeter;snapToPoint=1;fontColor=#ffffff;strokeColor=#FCFCFC;strokeWidth=3;" parent="9pnh7lvO98Alzu9_AtAS-255" vertex="1">
          <mxGeometry x="45.24057700948242" y="45.241111111111096" width="20" height="20" as="geometry" />
        </mxCell>
        <mxCell id="9pnh7lvO98Alzu9_AtAS-241" value="" style="shape=waypoint;sketch=0;fillStyle=solid;size=6;pointerEvents=1;points=[];fillColor=#FCFCFC;resizable=0;rotatable=0;perimeter=centerPerimeter;snapToPoint=1;fontColor=#ffffff;strokeColor=#FCFCFC;strokeWidth=3;" parent="9pnh7lvO98Alzu9_AtAS-255" vertex="1">
          <mxGeometry x="85.95486272376812" y="45.241111111111096" width="20" height="20" as="geometry" />
        </mxCell>
        <mxCell id="9pnh7lvO98Alzu9_AtAS-242" value="" style="shape=waypoint;sketch=0;fillStyle=solid;size=6;pointerEvents=1;points=[];fillColor=#FCFCFC;resizable=0;rotatable=0;perimeter=centerPerimeter;snapToPoint=1;fontColor=#ffffff;strokeColor=#FCFCFC;strokeWidth=3;" parent="9pnh7lvO98Alzu9_AtAS-255" vertex="1">
          <mxGeometry x="126.66914843805385" y="45.241111111111096" width="20" height="20" as="geometry" />
        </mxCell>
        <mxCell id="9pnh7lvO98Alzu9_AtAS-243" value="" style="shape=waypoint;sketch=0;fillStyle=solid;size=6;pointerEvents=1;points=[];fillColor=#FCFCFC;resizable=0;rotatable=0;perimeter=centerPerimeter;snapToPoint=1;fontColor=#ffffff;strokeColor=#FCFCFC;strokeWidth=3;" parent="9pnh7lvO98Alzu9_AtAS-255" vertex="1">
          <mxGeometry x="9.954862723768134" y="45.241111111111096" width="20" height="20" as="geometry" />
        </mxCell>
        <mxCell id="9pnh7lvO98Alzu9_AtAS-244" value="" style="shape=waypoint;sketch=0;fillStyle=solid;size=6;pointerEvents=1;points=[];fillColor=#FCFCFC;resizable=0;rotatable=0;perimeter=centerPerimeter;snapToPoint=1;fontColor=#ffffff;strokeColor=#FCFCFC;strokeWidth=3;" parent="9pnh7lvO98Alzu9_AtAS-255" vertex="1">
          <mxGeometry x="161.95486272376812" y="45.241111111111096" width="20" height="20" as="geometry" />
        </mxCell>
        <mxCell id="9pnh7lvO98Alzu9_AtAS-245" style="edgeStyle=orthogonalEdgeStyle;rounded=0;orthogonalLoop=1;jettySize=auto;html=1;entryX=0.71;entryY=0.75;entryDx=0;entryDy=0;entryPerimeter=0;fillColor=#1ba1e2;strokeColor=#FCFCFC;strokeWidth=3;" parent="9pnh7lvO98Alzu9_AtAS-255" target="9pnh7lvO98Alzu9_AtAS-238" edge="1">
          <mxGeometry relative="1" as="geometry">
            <mxPoint x="19" y="135.7142857142857" as="sourcePoint" />
            <mxPoint x="28.047619047619047" y="146.57142857142858" as="targetPoint" />
          </mxGeometry>
        </mxCell>
        <mxCell id="9pnh7lvO98Alzu9_AtAS-246" style="edgeStyle=orthogonalEdgeStyle;rounded=0;orthogonalLoop=1;jettySize=auto;html=1;fillColor=#1ba1e2;strokeColor=#FCFCFC;strokeWidth=3;" parent="9pnh7lvO98Alzu9_AtAS-255" target="9pnh7lvO98Alzu9_AtAS-243" edge="1">
          <mxGeometry relative="1" as="geometry">
            <mxPoint x="19" y="99.52380952380952" as="sourcePoint" />
            <mxPoint x="28.047619047619047" y="104.04761904761905" as="targetPoint" />
          </mxGeometry>
        </mxCell>
        <mxCell id="9pnh7lvO98Alzu9_AtAS-247" style="edgeStyle=orthogonalEdgeStyle;rounded=0;orthogonalLoop=1;jettySize=auto;html=1;fillColor=#1ba1e2;strokeColor=#FCFCFC;strokeWidth=3;entryX=0.16;entryY=0.28;entryDx=0;entryDy=0;entryPerimeter=0;exitX=0.75;exitY=0.96;exitDx=0;exitDy=0;exitPerimeter=0;" parent="9pnh7lvO98Alzu9_AtAS-255" source="9pnh7lvO98Alzu9_AtAS-243" target="9pnh7lvO98Alzu9_AtAS-240" edge="1">
          <mxGeometry relative="1" as="geometry">
            <mxPoint x="28.047619047619047" y="108.57142857142857" as="sourcePoint" />
            <mxPoint x="28.047619047619047" y="63.333333333333336" as="targetPoint" />
          </mxGeometry>
        </mxCell>
        <mxCell id="9pnh7lvO98Alzu9_AtAS-248" style="edgeStyle=orthogonalEdgeStyle;rounded=0;orthogonalLoop=1;jettySize=auto;html=1;fillColor=#1ba1e2;strokeColor=#FCFCFC;strokeWidth=3;entryX=0.07;entryY=0.72;entryDx=0;entryDy=0;entryPerimeter=0;" parent="9pnh7lvO98Alzu9_AtAS-255" target="9pnh7lvO98Alzu9_AtAS-241" edge="1">
          <mxGeometry relative="1" as="geometry">
            <mxPoint x="54.285714285714285" y="54.285714285714285" as="sourcePoint" />
            <mxPoint x="63.333333333333336" y="63.333333333333336" as="targetPoint" />
          </mxGeometry>
        </mxCell>
        <mxCell id="9pnh7lvO98Alzu9_AtAS-249" style="edgeStyle=orthogonalEdgeStyle;rounded=0;orthogonalLoop=1;jettySize=auto;html=1;fillColor=#1ba1e2;strokeColor=#FCFCFC;strokeWidth=3;entryX=0.3;entryY=0.52;entryDx=0;entryDy=0;entryPerimeter=0;" parent="9pnh7lvO98Alzu9_AtAS-255" target="9pnh7lvO98Alzu9_AtAS-242" edge="1">
          <mxGeometry relative="1" as="geometry">
            <mxPoint x="90.47619047619047" y="54.285714285714285" as="sourcePoint" />
            <mxPoint x="104.04761904761905" y="63.333333333333336" as="targetPoint" />
          </mxGeometry>
        </mxCell>
        <mxCell id="9pnh7lvO98Alzu9_AtAS-250" style="edgeStyle=orthogonalEdgeStyle;rounded=0;orthogonalLoop=1;jettySize=auto;html=1;fillColor=#1ba1e2;strokeColor=#FCFCFC;strokeWidth=3;entryX=0.27;entryY=0.52;entryDx=0;entryDy=0;entryPerimeter=0;" parent="9pnh7lvO98Alzu9_AtAS-255" target="9pnh7lvO98Alzu9_AtAS-244" edge="1">
          <mxGeometry relative="1" as="geometry">
            <mxPoint x="135.7142857142857" y="54.285714285714285" as="sourcePoint" />
            <mxPoint x="144.76190476190476" y="63.333333333333336" as="targetPoint" />
          </mxGeometry>
        </mxCell>
        <mxCell id="9pnh7lvO98Alzu9_AtAS-251" style="edgeStyle=orthogonalEdgeStyle;rounded=0;orthogonalLoop=1;jettySize=auto;html=1;fillColor=#1ba1e2;strokeColor=#FCFCFC;strokeWidth=3;entryX=0.59;entryY=1.03;entryDx=0;entryDy=0;entryPerimeter=0;" parent="9pnh7lvO98Alzu9_AtAS-255" target="9pnh7lvO98Alzu9_AtAS-234" edge="1">
          <mxGeometry relative="1" as="geometry">
            <mxPoint x="171.90476190476193" y="54.285714285714285" as="sourcePoint" />
            <mxPoint x="180.04761904761904" y="63.333333333333336" as="targetPoint" />
          </mxGeometry>
        </mxCell>
        <mxCell id="9pnh7lvO98Alzu9_AtAS-260" value="&lt;font style=&quot;font-size: 15px;&quot;&gt;Reward Function 1&lt;/font&gt;" style="rounded=1;whiteSpace=wrap;html=1;fontFamily=Comic Sans MS;fontSize=18;arcSize=26;strokeColor=#0000CC;strokeWidth=3;" parent="1" vertex="1">
          <mxGeometry x="450" y="550" width="90" height="50" as="geometry" />
        </mxCell>
        <mxCell id="9pnh7lvO98Alzu9_AtAS-261" value="&lt;font style=&quot;font-size: 15px;&quot;&gt;Reward Function 2&lt;/font&gt;" style="rounded=1;whiteSpace=wrap;html=1;fontFamily=Comic Sans MS;fontSize=18;arcSize=26;strokeColor=#0000CC;strokeWidth=3;" parent="1" vertex="1">
          <mxGeometry x="450" y="620" width="90" height="50" as="geometry" />
        </mxCell>
        <mxCell id="9pnh7lvO98Alzu9_AtAS-262" value="&lt;font style=&quot;font-size: 15px;&quot;&gt;Reward Function N&lt;/font&gt;" style="rounded=1;whiteSpace=wrap;html=1;fontFamily=Comic Sans MS;fontSize=18;arcSize=26;strokeColor=#0000CC;strokeWidth=3;" parent="1" vertex="1">
          <mxGeometry x="450" y="720" width="90" height="50" as="geometry" />
        </mxCell>
        <mxCell id="9pnh7lvO98Alzu9_AtAS-263" value="" style="endArrow=none;dashed=1;html=1;dashPattern=1 3;strokeWidth=2;rounded=0;" parent="1" edge="1">
          <mxGeometry width="50" height="50" relative="1" as="geometry">
            <mxPoint x="494.5" y="710" as="sourcePoint" />
            <mxPoint x="494.5" y="680" as="targetPoint" />
          </mxGeometry>
        </mxCell>
        <mxCell id="9pnh7lvO98Alzu9_AtAS-268" value="" style="edgeStyle=segmentEdgeStyle;endArrow=classic;html=1;curved=0;rounded=0;endSize=8;startSize=8;exitX=1;exitY=0.5;exitDx=0;exitDy=0;entryX=0;entryY=0.5;entryDx=0;entryDy=0;fillColor=#0050ef;strokeColor=#001DBC;strokeWidth=3;" parent="1" source="9pnh7lvO98Alzu9_AtAS-264" target="9pnh7lvO98Alzu9_AtAS-75" edge="1">
          <mxGeometry width="50" height="50" relative="1" as="geometry">
            <mxPoint x="560" y="650" as="sourcePoint" />
            <mxPoint x="600" y="580" as="targetPoint" />
            <Array as="points">
              <mxPoint x="590" y="663" />
              <mxPoint x="590" y="575" />
            </Array>
          </mxGeometry>
        </mxCell>
        <mxCell id="9pnh7lvO98Alzu9_AtAS-269" value="" style="edgeStyle=segmentEdgeStyle;endArrow=classic;html=1;curved=0;rounded=0;endSize=8;startSize=8;exitX=1;exitY=0.5;exitDx=0;exitDy=0;entryX=0;entryY=0.5;entryDx=0;entryDy=0;fillColor=#a20025;strokeColor=#6F0000;strokeWidth=3;" parent="1" source="9pnh7lvO98Alzu9_AtAS-264" target="9pnh7lvO98Alzu9_AtAS-139" edge="1">
          <mxGeometry width="50" height="50" relative="1" as="geometry">
            <mxPoint x="560" y="673" as="sourcePoint" />
            <mxPoint x="640" y="585" as="targetPoint" />
            <Array as="points">
              <mxPoint x="590" y="663" />
              <mxPoint x="590" y="775" />
            </Array>
          </mxGeometry>
        </mxCell>
        <mxCell id="9pnh7lvO98Alzu9_AtAS-270" value="&lt;font style=&quot;font-size: 15px;&quot;&gt;True Reward Function&lt;/font&gt;" style="rounded=1;whiteSpace=wrap;html=1;fontFamily=Comic Sans MS;fontSize=18;arcSize=26;strokeColor=#0000CC;strokeWidth=3;" parent="1" vertex="1">
          <mxGeometry x="440" y="350" width="110" height="50" as="geometry" />
        </mxCell>
        <mxCell id="9pnh7lvO98Alzu9_AtAS-271" value="" style="endArrow=classic;html=1;rounded=0;exitX=1;exitY=0.5;exitDx=0;exitDy=0;entryX=0;entryY=0.5;entryDx=0;entryDy=0;strokeColor=#F0F0F0;strokeWidth=3;" parent="1" source="9pnh7lvO98Alzu9_AtAS-270" target="9pnh7lvO98Alzu9_AtAS-201" edge="1">
          <mxGeometry width="50" height="50" relative="1" as="geometry">
            <mxPoint x="560" y="390" as="sourcePoint" />
            <mxPoint x="610" y="340" as="targetPoint" />
          </mxGeometry>
        </mxCell>
        <mxCell id="9pnh7lvO98Alzu9_AtAS-272" value="Optimal Reward" style="text;html=1;strokeColor=none;fillColor=none;align=center;verticalAlign=middle;whiteSpace=wrap;rounded=0;fontSize=18;" parent="1" vertex="1">
          <mxGeometry x="830" y="350" width="70" height="30" as="geometry" />
        </mxCell>
        <mxCell id="9pnh7lvO98Alzu9_AtAS-273" value="Unsafe Reward" style="text;html=1;strokeColor=none;fillColor=none;align=center;verticalAlign=middle;whiteSpace=wrap;rounded=0;fontSize=18;" parent="1" vertex="1">
          <mxGeometry x="830" y="560" width="70" height="30" as="geometry" />
        </mxCell>
        <mxCell id="9pnh7lvO98Alzu9_AtAS-274" value="Risk-averse Reward" style="text;html=1;strokeColor=none;fillColor=none;align=center;verticalAlign=middle;whiteSpace=wrap;rounded=0;fontSize=18;" parent="1" vertex="1">
          <mxGeometry x="830" y="730" width="100" height="30" as="geometry" />
        </mxCell>
        <mxCell id="9pnh7lvO98Alzu9_AtAS-276" value="&lt;font style=&quot;font-size: 18px;&quot;&gt;For each test environment&lt;/font&gt;" style="rounded=0;whiteSpace=wrap;html=1;" parent="1" vertex="1">
          <mxGeometry x="420" y="230" width="460" height="40" as="geometry" />
        </mxCell>
        <mxCell id="9pnh7lvO98Alzu9_AtAS-277" value="" style="shape=crossbar;whiteSpace=wrap;html=1;rounded=1;direction=south;" parent="1" vertex="1">
          <mxGeometry x="970" y="366" width="20" height="214" as="geometry" />
        </mxCell>
        <mxCell id="9pnh7lvO98Alzu9_AtAS-278" value="" style="shape=crossbar;whiteSpace=wrap;html=1;rounded=1;direction=south;" parent="1" vertex="1">
          <mxGeometry x="930" y="366" width="20" height="374" as="geometry" />
        </mxCell>
        <mxCell id="9pnh7lvO98Alzu9_AtAS-281" value="" style="endArrow=none;dashed=1;html=1;rounded=0;entryX=1;entryY=1;entryDx=0;entryDy=0;entryPerimeter=0;" parent="1" target="9pnh7lvO98Alzu9_AtAS-277" edge="1">
          <mxGeometry width="50" height="50" relative="1" as="geometry">
            <mxPoint x="910" y="580" as="sourcePoint" />
            <mxPoint x="960" y="580" as="targetPoint" />
          </mxGeometry>
        </mxCell>
        <mxCell id="9pnh7lvO98Alzu9_AtAS-283" value="Difference=&lt;br&gt;Test regret" style="text;html=1;strokeColor=none;fillColor=none;align=center;verticalAlign=middle;whiteSpace=wrap;rounded=0;fontSize=18;labelBorderColor=default;" parent="1" vertex="1">
          <mxGeometry x="990" y="458" width="130" height="30" as="geometry" />
        </mxCell>
        <mxCell id="9pnh7lvO98Alzu9_AtAS-284" value="Difference=&lt;br&gt;Risk-averse regret" style="text;html=1;strokeColor=none;fillColor=none;align=center;verticalAlign=middle;whiteSpace=wrap;rounded=0;fontSize=18;labelBorderColor=default;" parent="1" vertex="1">
          <mxGeometry x="960" y="647.5" width="160" height="30" as="geometry" />
        </mxCell>
        <mxCell id="9pnh7lvO98Alzu9_AtAS-285" value="Test variance" style="text;html=1;strokeColor=none;fillColor=none;align=center;verticalAlign=middle;whiteSpace=wrap;rounded=0;fontSize=18;labelBorderColor=default;" parent="1" vertex="1">
          <mxGeometry x="825" y="610" width="110" height="30" as="geometry" />
        </mxCell>
        <mxCell id="9pnh7lvO98Alzu9_AtAS-288" value="Risk-averse variance" style="text;html=1;strokeColor=none;fillColor=none;align=center;verticalAlign=middle;whiteSpace=wrap;rounded=0;fontSize=18;labelBorderColor=default;" parent="1" vertex="1">
          <mxGeometry x="825" y="780" width="110" height="30" as="geometry" />
        </mxCell>
        <mxCell id="9pnh7lvO98Alzu9_AtAS-289" value="&lt;font style=&quot;font-size: 18px;&quot;&gt;Variance = Uncertainty of the reward in that trajectory&lt;/font&gt;" style="rounded=0;whiteSpace=wrap;html=1;" parent="1" vertex="1">
          <mxGeometry x="530" y="880" width="630" height="40" as="geometry" />
        </mxCell>
        <mxCell id="pu2686mD0NrhmpSzrKGa-4" value="&lt;font style=&quot;font-size: 18px;&quot;&gt;For each batch&lt;/font&gt;" style="rounded=0;whiteSpace=wrap;html=1;" parent="1" vertex="1">
          <mxGeometry x="90" y="170" width="460" height="40" as="geometry" />
        </mxCell>
        <mxCell id="pu2686mD0NrhmpSzrKGa-5" value="" style="group;aspect=fixed;" parent="1" vertex="1" connectable="0">
          <mxGeometry x="120" y="572.5" width="257.14" height="180" as="geometry" />
        </mxCell>
        <mxCell id="pu2686mD0NrhmpSzrKGa-6" value="" style="rounded=0;whiteSpace=wrap;html=1;container=0;" parent="pu2686mD0NrhmpSzrKGa-5" vertex="1">
          <mxGeometry width="257.14" height="180" as="geometry" />
        </mxCell>
        <mxCell id="pu2686mD0NrhmpSzrKGa-7" value="" style="endArrow=classic;html=1;rounded=0;strokeWidth=2;" parent="pu2686mD0NrhmpSzrKGa-5" edge="1">
          <mxGeometry width="50" height="50" relative="1" as="geometry">
            <mxPoint x="11.428444444444477" y="166.21142857142857" as="sourcePoint" />
            <mxPoint x="11.428444444444477" y="40.49714285714283" as="targetPoint" />
          </mxGeometry>
        </mxCell>
        <mxCell id="pu2686mD0NrhmpSzrKGa-8" value="" style="rounded=0;whiteSpace=wrap;html=1;rotation=90;fillColor=#a20025;fontColor=#ffffff;strokeColor=#6F0000;container=0;" parent="pu2686mD0NrhmpSzrKGa-5" vertex="1">
          <mxGeometry x="23.662594222222236" y="152.22857142857134" width="9.828462222222221" height="11.428571428571425" as="geometry" />
        </mxCell>
        <mxCell id="pu2686mD0NrhmpSzrKGa-9" value="" style="rounded=0;whiteSpace=wrap;html=1;rotation=90;fillColor=#a20025;fontColor=#ffffff;strokeColor=#6F0000;container=0;" parent="pu2686mD0NrhmpSzrKGa-5" vertex="1">
          <mxGeometry x="43.57094444444448" y="80.71428571428568" width="152.85544444444443" height="11.428571428571425" as="geometry" />
        </mxCell>
        <mxCell id="pu2686mD0NrhmpSzrKGa-10" value="" style="rounded=0;whiteSpace=wrap;html=1;rotation=90;fillColor=#a20025;fontColor=#ffffff;strokeColor=#6F0000;container=0;" parent="pu2686mD0NrhmpSzrKGa-5" vertex="1">
          <mxGeometry x="41.42811111111114" y="125.71428571428568" width="62.85644444444443" height="11.428571428571425" as="geometry" />
        </mxCell>
        <mxCell id="pu2686mD0NrhmpSzrKGa-11" value="" style="rounded=0;whiteSpace=wrap;html=1;rotation=90;fillColor=#a20025;fontColor=#ffffff;strokeColor=#6F0000;container=0;" parent="pu2686mD0NrhmpSzrKGa-5" vertex="1">
          <mxGeometry x="152.85544444444437" y="136.21142857142854" width="43.570944444444436" height="11.428571428571425" as="geometry" />
        </mxCell>
        <mxCell id="pu2686mD0NrhmpSzrKGa-12" value="" style="rounded=0;whiteSpace=wrap;html=1;rotation=90;fillColor=#a20025;fontColor=#ffffff;strokeColor=#6F0000;container=0;" parent="pu2686mD0NrhmpSzrKGa-5" vertex="1">
          <mxGeometry x="214.28333333333333" y="150.7142857142857" width="14.285555555555556" height="11.428571428571425" as="geometry" />
        </mxCell>
        <mxCell id="pu2686mD0NrhmpSzrKGa-13" value="" style="endArrow=classic;html=1;rounded=0;" parent="pu2686mD0NrhmpSzrKGa-5" edge="1">
          <mxGeometry width="50" height="50" relative="1" as="geometry">
            <mxPoint x="11.428444444444477" y="166.21142857142857" as="sourcePoint" />
            <mxPoint x="245.7115555555554" y="165.71428571428564" as="targetPoint" />
          </mxGeometry>
        </mxCell>
        <mxCell id="pu2686mD0NrhmpSzrKGa-14" value="" style="rounded=0;whiteSpace=wrap;html=1;rotation=90;fillColor=#a20025;fontColor=#ffffff;strokeColor=#6F0000;container=0;" parent="pu2686mD0NrhmpSzrKGa-5" vertex="1">
          <mxGeometry x="31.611077333333327" y="138.7485714285714" width="39.645273777777774" height="11.428571428571425" as="geometry" />
        </mxCell>
        <mxCell id="pu2686mD0NrhmpSzrKGa-15" value="" style="rounded=0;whiteSpace=wrap;html=1;rotation=90;fillColor=#a20025;fontColor=#ffffff;strokeColor=#6F0000;container=0;" parent="pu2686mD0NrhmpSzrKGa-5" vertex="1">
          <mxGeometry x="45.713777777777715" y="107.14285714285708" width="99.9988888888889" height="11.428571428571425" as="geometry" />
        </mxCell>
        <mxCell id="pu2686mD0NrhmpSzrKGa-16" value="" style="rounded=0;whiteSpace=wrap;html=1;rotation=90;fillColor=#a20025;fontColor=#ffffff;strokeColor=#6F0000;container=0;" parent="pu2686mD0NrhmpSzrKGa-5" vertex="1">
          <mxGeometry x="108.85593333333333" y="117.35428571428568" width="79.14197777777774" height="11.428571428571425" as="geometry" />
        </mxCell>
        <mxCell id="pu2686mD0NrhmpSzrKGa-17" value="" style="rounded=0;whiteSpace=wrap;html=1;rotation=90;fillColor=#a20025;fontColor=#ffffff;strokeColor=#6F0000;container=0;" parent="pu2686mD0NrhmpSzrKGa-5" vertex="1">
          <mxGeometry x="185.7122222222221" y="143.3542857142857" width="29.28538888888888" height="11.428571428571425" as="geometry" />
        </mxCell>
        <mxCell id="pu2686mD0NrhmpSzrKGa-18" value="&lt;font style=&quot;font-size: 18px;&quot;&gt;Computed probabilities&lt;/font&gt;" style="text;html=1;strokeColor=none;fillColor=none;align=center;verticalAlign=middle;whiteSpace=wrap;rounded=0;" parent="1" vertex="1">
          <mxGeometry x="120" y="752.5" width="257.14" height="30" as="geometry" />
        </mxCell>
        <mxCell id="pu2686mD0NrhmpSzrKGa-19" value="" style="endArrow=classic;html=1;rounded=0;exitX=1;exitY=0.5;exitDx=0;exitDy=0;entryX=0;entryY=0.5;entryDx=0;entryDy=0;" parent="1" source="pu2686mD0NrhmpSzrKGa-6" target="9pnh7lvO98Alzu9_AtAS-264" edge="1">
          <mxGeometry width="50" height="50" relative="1" as="geometry">
            <mxPoint x="390" y="690" as="sourcePoint" />
            <mxPoint x="440" y="640" as="targetPoint" />
          </mxGeometry>
        </mxCell>
        <mxCell id="pu2686mD0NrhmpSzrKGa-20" value="" style="endArrow=classic;html=1;rounded=0;exitX=1;exitY=0.5;exitDx=0;exitDy=0;entryX=0;entryY=0.5;entryDx=0;entryDy=0;" parent="1" source="9pnh7lvO98Alzu9_AtAS-275" target="pu2686mD0NrhmpSzrKGa-21" edge="1">
          <mxGeometry width="50" height="50" relative="1" as="geometry">
            <mxPoint x="1240" y="550" as="sourcePoint" />
            <mxPoint x="1350" y="390" as="targetPoint" />
          </mxGeometry>
        </mxCell>
        <mxCell id="pu2686mD0NrhmpSzrKGa-21" value="&lt;font style=&quot;font-size: 18px;&quot;&gt;Take average of&lt;br&gt;&amp;nbsp;each metric&lt;/font&gt;" style="rounded=0;whiteSpace=wrap;html=1;" parent="1" vertex="1">
          <mxGeometry x="1300" y="555" width="160" height="40" as="geometry" />
        </mxCell>
        <mxCell id="pu2686mD0NrhmpSzrKGa-22" value="" style="endArrow=none;html=1;rounded=0;entryX=1;entryY=0;entryDx=0;entryDy=0;exitX=0;exitY=0;exitDx=0;exitDy=0;" parent="1" edge="1">
          <mxGeometry width="50" height="50" relative="1" as="geometry">
            <mxPoint x="825" y="600" as="sourcePoint" />
            <mxPoint x="935" y="600" as="targetPoint" />
            <Array as="points">
              <mxPoint x="880" y="600" />
            </Array>
          </mxGeometry>
        </mxCell>
        <mxCell id="pu2686mD0NrhmpSzrKGa-23" value="" style="endArrow=none;html=1;rounded=0;entryX=1;entryY=0;entryDx=0;entryDy=0;exitX=0;exitY=0;exitDx=0;exitDy=0;" parent="1" edge="1">
          <mxGeometry width="50" height="50" relative="1" as="geometry">
            <mxPoint x="825" y="769" as="sourcePoint" />
            <mxPoint x="935" y="769" as="targetPoint" />
            <Array as="points">
              <mxPoint x="880" y="769" />
            </Array>
          </mxGeometry>
        </mxCell>
        <mxCell id="pu2686mD0NrhmpSzrKGa-24" value="" style="endArrow=classic;html=1;rounded=0;entryX=0;entryY=0.5;entryDx=0;entryDy=0;" parent="1" target="pu2686mD0NrhmpSzrKGa-25" edge="1">
          <mxGeometry width="50" height="50" relative="1" as="geometry">
            <mxPoint x="1240" y="693" as="sourcePoint" />
            <mxPoint x="1350" y="460" as="targetPoint" />
          </mxGeometry>
        </mxCell>
        <mxCell id="pu2686mD0NrhmpSzrKGa-25" value="&lt;span style=&quot;font-size: 18px;&quot;&gt;Plot each unsafe and risk-averse trajectory&lt;br&gt;for each environment in the batch&lt;br&gt;&lt;/span&gt;" style="rounded=0;whiteSpace=wrap;html=1;" parent="1" vertex="1">
          <mxGeometry x="1270" y="625" width="190" height="135" as="geometry" />
        </mxCell>
      </root>
    </mxGraphModel>
  </diagram>
</mxfile>
